<?xml version="1.0" encoding="utf-8"?>
<svg id="master-artboard" viewBox="0 0 868.0381469726562 167.41627502441406" version="1.1" xmlns="http://www.w3.org/2000/svg" x="0px" y="0px" width="868.0381469726562px" height="167.41627502441406px"><defs><path id="text-path-0" d="M 293.5624694824219 178.10711669921875 A 100 10 0 0 1 833.7208251953125 178.10711669921875 A 100 10 0 0 1 293.5624694824219 178.10711669921875" style="fill: none; stroke: red; stroke-width: 2;"/><style id="ee-google-fonts">@import url(https://fonts.googleapis.com/css?family=Syncopate:400,700);</style></defs><rect id="ee-background" x="0" y="0" width="868.0381469726562" height="167.41627502441406" style="fill: #404040;; fill-opacity: 0; pointer-events: none;"/><g transform="matrix(0.49386098980903625, 0, 0, 0.49386098980903625, -584.118408203125, -263.44108295440674)"><g transform="matrix(1, 0, 0, 1, 0, 0)">
	<path class="st1" d="M938.5,691.7c0,35.3-28.7,64-64,64s-64-28.7-64-64c0-35.3,64-126,64-126S938.5,656.4,938.5,691.7z" style="fill: rgb(103, 188, 255); opacity: 1;" transform="matrix(0.9999999999999999, 0, 0, 0.9999999999999999, 884.447837390581, 41.99891965262532)"/>
	
	
	<g transform="matrix(0.9999999999999999, 0, 0, 0.9999999999999999, 884.447837390581, 41.99891965262532)">
		<linearGradient id="gradient-1" gradientUnits="userSpaceOnUse" x1="807.4108" y1="709.6161" x2="1021.4108" y2="800.6161">
			<stop offset="0" style="stop-color:#FFFFFF;stop-opacity:0"/>
			<stop offset="1" style="stop-color:#48DCE2"/>
		</linearGradient>
		<path class="st4" d="M874.5,784.4c-27.2,0-52.8-4.4-72.1-12.5c-20.9-8.7-32.4-20.8-32.4-34.2c0-7.4,3.6-18.3,20.6-28.4&#10;&#9;&#9;&#9;c2.6-1.5,6-0.7,7.5,1.9c1.5,2.6,0.7,6-1.9,7.5c-9.8,5.8-15.2,12.5-15.2,18.9c0,8.5,9.3,17.3,25.6,24c18.1,7.5,42.2,11.6,67.9,11.6&#10;&#9;&#9;&#9;s49.9-4.1,67.9-11.6c16.3-6.8,25.6-15.5,25.6-24c0-7.9-7.9-14.4-14.5-18.4c-2.6-1.6-3.4-5-1.8-7.6c1.6-2.6,5-3.4,7.6-1.8&#10;&#9;&#9;&#9;c16.3,10,19.7,20.6,19.7,27.8c0,13.4-11.5,25.5-32.4,34.2C927.3,779.9,901.7,784.4,874.5,784.4z" style="fill: rgb(20, 143, 241); opacity: 1;"/>
	</g>
	<g transform="matrix(0.9999999999999999, 0, 0, 0.9999999999999999, 884.447837390581, 41.99891965262532)">
		<linearGradient id="gradient-2" gradientUnits="userSpaceOnUse" x1="1069.7352" y1="709.2166" x2="619.7352" y2="777.2166">
			<stop offset="0" style="stop-color:#FFFFFF;stop-opacity:0"/>
			<stop offset="0.1086" style="stop-color:#F7FEFE;stop-opacity:0.1086"/>
			<stop offset="0.275" style="stop-color:#E2F9FA;stop-opacity:0.275"/>
			<stop offset="0.4786" style="stop-color:#BFF3F5;stop-opacity:0.4786"/>
			<stop offset="0.7114" style="stop-color:#8EE9ED;stop-opacity:0.7114"/>
			<stop offset="0.966" style="stop-color:#51DEE3;stop-opacity:0.966"/>
			<stop offset="1" style="stop-color:#48DCE2"/>
		</linearGradient>
		<path class="st5" d="M874.5,803.1c-83.9,0-149.6-28.7-149.6-65.4c0-22.7,24.4-42.7,67-54.8c2.9-0.8,6,0.9,6.8,3.8&#10;&#9;&#9;&#9;c0.8,2.9-0.9,6-3.8,6.8c-36.4,10.3-59,27.2-59,44.2c0,26.3,55.7,54.4,138.6,54.4s138.6-28.1,138.6-54.4c0-16.8-22.3-33.6-58.2-44&#10;&#9;&#9;&#9;c-2.9-0.8-4.6-3.9-3.8-6.8c0.8-2.9,3.9-4.6,6.8-3.8c42,12.1,66.1,32,66.1,54.5C1024.1,774.4,958.4,803.1,874.5,803.1z" style="fill: rgb(0, 91, 162); opacity: 1;"/>
	</g>
</g>
</g>
<path d="M 340.6043701171875 152.03036499023438 C 340.6043701171875 153.870361328125 340.41436767578125 155.50369262695312 340.03436279296875 156.93035888671875 C 339.65435791015625 158.35037231445312 339.1143798828125 159.59036254882812 338.41436767578125 160.65036010742188 C 337.7210388183594 161.7103729248047 336.8777160644531 162.60702514648438 335.8843688964844 163.34036254882812 C 334.89105224609375 164.0803680419922 333.78436279296875 164.6737060546875 332.5643615722656 165.120361328125 C 331.3443603515625 165.56036376953125 330.02105712890625 165.88369750976562 328.5943603515625 166.09036254882812 C 327.17437744140625 166.2903594970703 325.6777038574219 166.39036560058594 324.1043701171875 166.39036560058594 L 309.30438232421875 166.39036560058594 L 309.30438232421875 137.72036743164062 L 324.0643615722656 137.72036743164062 C 326.4110412597656 137.72036743164062 328.5943603515625 137.94703674316406 330.6143798828125 138.40036010742188 C 332.6277160644531 138.86036682128906 334.3777160644531 139.64370727539062 335.8643798828125 140.7503662109375 C 337.3443603515625 141.85702514648438 338.5043640136719 143.3303680419922 339.3443603515625 145.1703643798828 C 340.18438720703125 147.00369262695312 340.6043701171875 149.2903594970703 340.6043701171875 152.03036499023438 M 337.91436767578125 152.03036499023438 C 337.91436767578125 150.47036743164062 337.76104736328125 149.0937042236328 337.4543762207031 147.90036010742188 C 337.147705078125 146.70703125 336.7110290527344 145.6670379638672 336.1443786621094 144.78036499023438 C 335.571044921875 143.89370727539062 334.8743896484375 143.15370178222656 334.05438232421875 142.56036376953125 C 333.234375 141.96035766601562 332.31103515625 141.47703552246094 331.28436279296875 141.11036682128906 C 330.25103759765625 140.73703002929688 329.13104248046875 140.47369384765625 327.92437744140625 140.32037353515625 C 326.7110290527344 140.1670379638672 325.42437744140625 140.09036254882812 324.0643615722656 140.09036254882812 L 311.91436767578125 140.09036254882812 L 311.91436767578125 163.99037170410156 L 324.0643615722656 163.99037170410156 C 326.1043701171875 163.99037170410156 327.974365234375 163.80703735351562 329.67437744140625 163.44036865234375 C 331.3743896484375 163.06703186035156 332.8310546875 162.42703247070312 334.04437255859375 161.52037048339844 C 335.2643737792969 160.60702514648438 336.2143859863281 159.38037109375 336.8943786621094 157.84036254882812 C 337.5743713378906 156.30703735351562 337.91436767578125 154.370361328125 337.91436767578125 152.03036499023438 ZM 348.1997375488281 166.39036560058594 L 348.1997375488281 137.72036743164062 L 350.8097229003906 137.72036743164062 L 350.8097229003906 166.39036560058594 L 348.1997375488281 166.39036560058594 ZM 381.71929931640625 139.93035888671875 C 381.3126220703125 139.80369567871094 380.75262451171875 139.6670379638672 380.039306640625 139.52037048339844 C 379.3193054199219 139.3737030029297 378.3959655761719 139.3003692626953 377.269287109375 139.3003692626953 C 375.70928955078125 139.3003692626953 374.2459716796875 139.4936981201172 372.8793029785156 139.88037109375 C 371.5059509277344 140.26036071777344 370.2326354980469 140.77703857421875 369.0592956542969 141.43035888671875 C 367.8793029785156 142.0836944580078 366.789306640625 142.84703063964844 365.789306640625 143.72036743164062 C 364.789306640625 144.5870361328125 363.8859558105469 145.5070343017578 363.07928466796875 146.48036193847656 L 363.07928466796875 166.39036560058594 L 360.46929931640625 166.39036560058594 L 360.46929931640625 137.72036743164062 L 363.07928466796875 137.72036743164062 L 363.07928466796875 143.56036376953125 C 364.01263427734375 142.60037231445312 365.0259704589844 141.71702575683594 366.1192932128906 140.91036987304688 C 367.2059631347656 140.10369873046875 368.35595703125 139.41036987304688 369.5693054199219 138.8303680419922 C 370.7826232910156 138.2570343017578 372.0526123046875 137.80703735351562 373.3793029785156 137.48036193847656 C 374.7059631347656 137.15370178222656 376.07928466796875 136.99037170410156 377.4992980957031 136.99037170410156 C 377.9859619140625 136.99037170410156 378.4226379394531 137.0003662109375 378.8092956542969 137.02037048339844 C 379.20263671875 137.0403594970703 379.5626220703125 137.06703186035156 379.8892822265625 137.10037231445312 C 380.2159729003906 137.13369750976562 380.5259704589844 137.1703643798828 380.8193054199219 137.21035766601562 C 381.11260986328125 137.2570343017578 381.4126281738281 137.30703735351562 381.71929931640625 137.36036682128906 L 381.71929931640625 139.93035888671875 L 381.71929931640625 139.93035888671875 ZM 415.4316711425781 164.89036560058594 C 414.2650146484375 165.2503662109375 413.1816711425781 165.56036376953125 412.1816711425781 165.8203582763672 C 411.1816711425781 166.07369995117188 410.19500732421875 166.28036499023438 409.2216796875 166.44036865234375 C 408.2416687011719 166.60037231445312 407.24835205078125 166.72036743164062 406.2416687011719 166.8003692626953 C 405.2350158691406 166.8737030029297 404.125 166.91036987304688 402.91168212890625 166.91036987304688 C 400.1050109863281 166.91036987304688 397.5683288574219 166.5703582763672 395.3016662597656 165.89036560058594 C 393.0283508300781 165.2103729248047 391.0950012207031 164.23370361328125 389.5016784667969 162.9603729248047 C 387.9150085449219 161.68702697753906 386.6883239746094 160.14369201660156 385.8216552734375 158.3303680419922 C 384.961669921875 156.52369689941406 384.53167724609375 154.4936981201172 384.53167724609375 152.24037170410156 C 384.53167724609375 150.05369567871094 384.94500732421875 148.0503692626953 385.77166748046875 146.23036193847656 C 386.59832763671875 144.41036987304688 387.7550048828125 142.8437042236328 389.2416687011719 141.53036499023438 C 390.7350158691406 140.22369384765625 392.5183410644531 139.21035766601562 394.5916748046875 138.49037170410156 C 396.6650085449219 137.76370239257812 398.95166015625 137.40036010742188 401.45166015625 137.40036010742188 C 404.0516662597656 137.40036010742188 406.36834716796875 137.7503662109375 408.40167236328125 138.4503631591797 C 410.43499755859375 139.14370727539062 412.1483459472656 140.13702392578125 413.5416564941406 141.43035888671875 C 414.9283447265625 142.72369384765625 415.9850158691406 144.293701171875 416.711669921875 146.14036560058594 C 417.4316711425781 147.98036193847656 417.79168701171875 150.05703735351562 417.79168701171875 152.370361328125 L 417.79168701171875 153.01036071777344 L 387.2216796875 153.01036071777344 C 387.375 154.7903594970703 387.8216552734375 156.39703369140625 388.5616760253906 157.8303680419922 C 389.2950134277344 159.26370239257812 390.3416748046875 160.48370361328125 391.70166015625 161.49037170410156 C 393.05499267578125 162.49037170410156 394.7216796875 163.2570343017578 396.70166015625 163.7903594970703 C 398.6883239746094 164.3303680419922 401.0016784667969 164.60037231445312 403.64166259765625 164.60037231445312 C 404.7683410644531 164.60037231445312 405.91168212890625 164.52369689941406 407.0716552734375 164.370361328125 C 408.2250061035156 164.21702575683594 409.3283386230469 164.01036071777344 410.3816833496094 163.7503662109375 C 411.4416809082031 163.49037170410156 412.41168212890625 163.19703674316406 413.2916564941406 162.870361328125 C 414.1650085449219 162.543701171875 414.8783264160156 162.20703125 415.4316711425781 161.86036682128906 L 415.4316711425781 164.89036560058594 M 415.2316589355469 150.74037170410156 C 415.13165283203125 149.28036499023438 414.8016662597656 147.88369750976562 414.2416687011719 146.5503692626953 C 413.6883239746094 145.22369384765625 412.85833740234375 144.05369567871094 411.7516784667969 143.0403594970703 C 410.6449890136719 142.02037048339844 409.2416687011719 141.2136993408203 407.5416564941406 140.620361328125 C 405.8349914550781 140.02037048339844 403.7916564941406 139.72036743164062 401.41168212890625 139.72036743164062 C 399.1716613769531 139.72036743164062 397.211669921875 140.02037048339844 395.53167724609375 140.620361328125 C 393.8450012207031 141.2136993408203 392.4183349609375 142.01702880859375 391.2516784667969 143.03036499023438 C 390.0783386230469 144.0370330810547 389.1583251953125 145.20370483398438 388.4916687011719 146.53036499023438 C 387.82501220703125 147.8636932373047 387.40167236328125 149.26702880859375 387.2216796875 150.74037170410156 L 415.2316589355469 150.74037170410156 ZM 454.8370056152344 164.120361328125 C 453.830322265625 164.53369140625 452.8370056152344 164.9136962890625 451.85699462890625 165.26036071777344 C 450.8769836425781 165.60702514648438 449.85699462890625 165.9070281982422 448.7969970703125 166.16036987304688 C 447.74365234375 166.4136962890625 446.6336669921875 166.60702514648438 445.46697998046875 166.74037170410156 C 444.2936706542969 166.88037109375 443.02032470703125 166.9503631591797 441.6470031738281 166.9503631591797 C 439.9469909667969 166.9503631591797 438.31365966796875 166.81370544433594 436.74700927734375 166.5403594970703 C 435.1803283691406 166.26036071777344 433.7236633300781 165.84036254882812 432.3769836425781 165.28036499023438 C 431.03033447265625 164.72703552246094 429.8070068359375 164.0370330810547 428.7070007324219 163.2103729248047 C 427.60699462890625 162.38369750976562 426.6636657714844 161.4203643798828 425.8769836425781 160.3203582763672 C 425.09033203125 159.22036743164062 424.4836730957031 157.98036193847656 424.0570068359375 156.60037231445312 C 423.6369934082031 155.22703552246094 423.427001953125 153.71702575683594 423.427001953125 152.07037353515625 C 423.427001953125 150.43035888671875 423.6369934082031 148.9237060546875 424.0570068359375 147.5503692626953 C 424.4836730957031 146.1703643798828 425.09033203125 144.93035888671875 425.8769836425781 143.8303680419922 C 426.6636657714844 142.73036193847656 427.60699462890625 141.76702880859375 428.7070007324219 140.94036865234375 C 429.8070068359375 140.1136932373047 431.03033447265625 139.4203643798828 432.3769836425781 138.86036682128906 C 433.7236633300781 138.30703735351562 435.177001953125 137.89036560058594 436.73699951171875 137.61036682128906 C 438.2969970703125 137.3303680419922 439.93365478515625 137.19036865234375 441.6470031738281 137.19036865234375 C 443.02032470703125 137.19036865234375 444.2936706542969 137.26036071777344 445.46697998046875 137.40036010742188 C 446.6336669921875 137.5403594970703 447.74365234375 137.73703002929688 448.7969970703125 137.99037170410156 C 449.85699462890625 138.23703002929688 450.8769836425781 138.53036499023438 451.85699462890625 138.870361328125 C 452.8370056152344 139.21702575683594 453.830322265625 139.59703063964844 454.8370056152344 140.01036071777344 L 454.8370056152344 143.14036560058594 C 454.0436706542969 142.64036560058594 453.19366455078125 142.1670379638672 452.2869873046875 141.72036743164062 C 451.3803405761719 141.27369689941406 450.4036560058594 140.88369750976562 449.35699462890625 140.5503692626953 C 448.30364990234375 140.21702575683594 447.1803283691406 139.95370483398438 445.98699951171875 139.76036071777344 C 444.7869873046875 139.56703186035156 443.5069885253906 139.47036743164062 442.1470031738281 139.47036743164062 C 439.3869934082031 139.47036743164062 437.0003356933594 139.77037048339844 434.98699951171875 140.370361328125 C 432.96697998046875 140.9636993408203 431.3003234863281 141.80703735351562 429.98699951171875 142.90036010742188 C 428.6736755371094 143.9936981201172 427.7003173828125 145.31703186035156 427.0669860839844 146.870361328125 C 426.43365478515625 148.4170379638672 426.11700439453125 150.15036010742188 426.11700439453125 152.07037353515625 C 426.11700439453125 153.99037170410156 426.43365478515625 155.72369384765625 427.0669860839844 157.27037048339844 C 427.7003173828125 158.81703186035156 428.6736755371094 160.13369750976562 429.98699951171875 161.22036743164062 C 431.3003234863281 162.31370544433594 432.96697998046875 163.1570281982422 434.98699951171875 163.7503662109375 C 437.0003356933594 164.3437042236328 439.3869934082031 164.64036560058594 442.1470031738281 164.64036560058594 C 443.5069885253906 164.64036560058594 444.7969970703125 164.5403594970703 446.0169982910156 164.34036254882812 C 447.2303161621094 164.14703369140625 448.3703308105469 163.88369750976562 449.4369812011719 163.5503692626953 C 450.503662109375 163.21702575683594 451.4836730957031 162.8303680419922 452.3769836425781 162.39036560058594 C 453.2769775390625 161.95703125 454.09698486328125 161.49703979492188 454.8370056152344 161.01036071777344 L 454.8370056152344 164.120361328125 L 454.8370056152344 164.120361328125 ZM 474.1895446777344 140.09036254882812 L 474.1895446777344 166.39036560058594 L 471.6095275878906 166.39036560058594 L 471.6095275878906 140.09036254882812 L 458.5595397949219 140.09036254882812 L 458.5595397949219 137.72036743164062 L 487.2395324707031 137.72036743164062 L 487.2395324707031 140.09036254882812 L 474.1895446777344 140.09036254882812 ZM 540.235107421875 152.03036499023438 C 540.235107421875 153.870361328125 540.0451049804688 155.50369262695312 539.6651000976562 156.93035888671875 C 539.2850952148438 158.35037231445312 538.7451171875 159.59036254882812 538.0451049804688 160.65036010742188 C 537.351806640625 161.7103729248047 536.5084228515625 162.60702514648438 535.51513671875 163.34036254882812 C 534.5217895507812 164.0803680419922 533.4151000976562 164.6737060546875 532.1951293945312 165.120361328125 C 530.97509765625 165.56036376953125 529.6517944335938 165.88369750976562 528.22509765625 166.09036254882812 C 526.8051147460938 166.2903594970703 525.3084716796875 166.39036560058594 523.735107421875 166.39036560058594 L 508.93511962890625 166.39036560058594 L 508.93511962890625 137.72036743164062 L 523.6951293945312 137.72036743164062 C 526.041748046875 137.72036743164062 528.22509765625 137.94703674316406 530.2451171875 138.40036010742188 C 532.2584228515625 138.86036682128906 534.0084228515625 139.64370727539062 535.4951171875 140.7503662109375 C 536.97509765625 141.85702514648438 538.1351318359375 143.3303680419922 538.97509765625 145.1703643798828 C 539.8151245117188 147.00369262695312 540.235107421875 149.2903594970703 540.235107421875 152.03036499023438 M 537.5451049804688 152.03036499023438 C 537.5451049804688 150.47036743164062 537.3917846679688 149.0937042236328 537.0850830078125 147.90036010742188 C 536.7784423828125 146.70703125 536.341796875 145.6670379638672 535.7750854492188 144.78036499023438 C 535.2017822265625 143.89370727539062 534.505126953125 143.15370178222656 533.6851196289062 142.56036376953125 C 532.8651123046875 141.96035766601562 531.9417724609375 141.47703552246094 530.9151000976562 141.11036682128906 C 529.8817749023438 140.73703002929688 528.7617797851562 140.47369384765625 527.5551147460938 140.32037353515625 C 526.341796875 140.1670379638672 525.0551147460938 140.09036254882812 523.6951293945312 140.09036254882812 L 511.54510498046875 140.09036254882812 L 511.54510498046875 163.99037170410156 L 523.6951293945312 163.99037170410156 C 525.735107421875 163.99037170410156 527.6051025390625 163.80703735351562 529.3051147460938 163.44036865234375 C 531.005126953125 163.06703186035156 532.4617919921875 162.42703247070312 533.6751098632812 161.52037048339844 C 534.8951416015625 160.60702514648438 535.8450927734375 159.38037109375 536.5250854492188 157.84036254882812 C 537.2051391601562 156.30703735351562 537.5451049804688 154.370361328125 537.5451049804688 152.03036499023438 ZM 547.8305053710938 166.39036560058594 L 547.8305053710938 137.72036743164062 L 550.4404907226562 137.72036743164062 L 550.4404907226562 166.39036560058594 L 547.8305053710938 166.39036560058594 ZM 583.27001953125 141.9503631591797 C 582.723388671875 141.69036865234375 582.0966796875 141.41036987304688 581.3900146484375 141.11036682128906 C 580.6766967773438 140.81036376953125 579.86669921875 140.5403594970703 578.9600219726562 140.3003692626953 C 578.0466918945312 140.06703186035156 577.02001953125 139.870361328125 575.8800048828125 139.71035766601562 C 574.7400512695312 139.5503692626953 573.473388671875 139.47036743164062 572.0800170898438 139.47036743164062 C 570.3933715820312 139.47036743164062 568.8933715820312 139.56703186035156 567.5800170898438 139.76036071777344 C 566.2667236328125 139.95370483398438 565.1533813476562 140.2570343017578 564.2400512695312 140.6703643798828 C 563.3333740234375 141.0770263671875 562.6400146484375 141.5937042236328 562.1600341796875 142.22036743164062 C 561.6800537109375 142.84703063964844 561.4400024414062 143.5937042236328 561.4400024414062 144.46035766601562 C 561.4400024414062 145.18035888671875 561.6633911132812 145.81370544433594 562.1100463867188 146.36036682128906 C 562.5633544921875 146.90036010742188 563.1766967773438 147.38037109375 563.9500122070312 147.8003692626953 C 564.723388671875 148.2136993408203 565.626708984375 148.59036254882812 566.6600341796875 148.93035888671875 C 567.7000122070312 149.27037048339844 568.800048828125 149.59036254882812 569.9600219726562 149.89036560058594 C 571.1200561523438 150.19036865234375 572.3167114257812 150.4936981201172 573.550048828125 150.8003692626953 C 574.7833862304688 151.10702514648438 575.9800415039062 151.43702697753906 577.1400146484375 151.7903594970703 C 578.300048828125 152.14369201660156 579.4000244140625 152.5403594970703 580.4400024414062 152.98036193847656 C 581.473388671875 153.4203643798828 582.376708984375 153.93370056152344 583.1500244140625 154.52037048339844 C 583.92333984375 155.10037231445312 584.5366821289062 155.76702880859375 584.9900512695312 156.52037048339844 C 585.443359375 157.27369689941406 585.6700439453125 158.14369201660156 585.6700439453125 159.13037109375 C 585.6700439453125 160.19703674316406 585.4666748046875 161.13037109375 585.06005859375 161.93035888671875 C 584.6600341796875 162.73036193847656 584.1133422851562 163.4203643798828 583.4200439453125 164.0003662109375 C 582.7333374023438 164.5803680419922 581.9266967773438 165.06036376953125 581 165.44036865234375 C 580.0733642578125 165.8203582763672 579.086669921875 166.1237030029297 578.0400390625 166.35037231445312 C 576.9866943359375 166.5703582763672 575.9000244140625 166.72703552246094 574.780029296875 166.8203582763672 C 573.6600341796875 166.9070281982422 572.5567016601562 166.9503631591797 571.4700317382812 166.9503631591797 C 568.9833374023438 166.9503631591797 566.7266845703125 166.77037048339844 564.7000122070312 166.41036987304688 C 562.6800537109375 166.0503692626953 560.75 165.55703735351562 558.9100341796875 164.93035888671875 L 558.9100341796875 161.74037170410156 C 560.8033447265625 162.86703491210938 562.8033447265625 163.6370391845703 564.9100341796875 164.0503692626953 C 567.0167236328125 164.47036743164062 569.2333374023438 164.68035888671875 571.56005859375 164.68035888671875 C 573.2000122070312 164.68035888671875 574.7166748046875 164.5836944580078 576.1100463867188 164.39036560058594 C 577.4967041015625 164.19036865234375 578.7000122070312 163.88037109375 579.7200317382812 163.4603729248047 C 580.7333374023438 163.03369140625 581.5233764648438 162.48036193847656 582.0900268554688 161.8003692626953 C 582.6500244140625 161.120361328125 582.9300537109375 160.28369140625 582.9300537109375 159.2903594970703 C 582.9300537109375 158.49703979492188 582.703369140625 157.80369567871094 582.25 157.21035766601562 C 581.8033447265625 156.61036682128906 581.193359375 156.0836944580078 580.4200439453125 155.63037109375 C 579.6466674804688 155.17703247070312 578.7400512695312 154.77703857421875 577.7000122070312 154.43035888671875 C 576.6666870117188 154.0836944580078 575.5733642578125 153.76036071777344 574.4200439453125 153.46035766601562 C 573.260009765625 153.16036987304688 572.0667114257812 152.870361328125 570.8400268554688 152.59036254882812 C 569.606689453125 152.30369567871094 568.4133911132812 151.9936981201172 567.260009765625 151.66036987304688 C 566.106689453125 151.3270263671875 565.010009765625 150.9503631591797 563.9700317382812 150.53036499023438 C 562.9367065429688 150.11036682128906 562.0333862304688 149.620361328125 561.260009765625 149.06036376953125 C 560.4866943359375 148.4936981201172 559.8733520507812 147.8437042236328 559.4200439453125 147.11036682128906 C 558.9666748046875 146.370361328125 558.7400512695312 145.51370239257812 558.7400512695312 144.5403594970703 C 558.7400512695312 143.5803680419922 558.92333984375 142.72703552246094 559.2900390625 141.98036193847656 C 559.6500244140625 141.24037170410156 560.1466674804688 140.59703063964844 560.780029296875 140.0503692626953 C 561.4133911132812 139.51036071777344 562.1533813476562 139.05703735351562 563 138.69036865234375 C 563.8466796875 138.31703186035156 564.7567138671875 138.02369689941406 565.7300415039062 137.81036376953125 C 566.6967163085938 137.59703063964844 567.7000122070312 137.44036865234375 568.7400512695312 137.34036254882812 C 569.7866821289062 137.24037170410156 570.8167114257812 137.19036865234375 571.8300170898438 137.19036865234375 C 572.943359375 137.19036865234375 573.9967041015625 137.24037170410156 574.9900512695312 137.34036254882812 C 575.9833374023438 137.44036865234375 576.943359375 137.57037353515625 577.8700561523438 137.73036193847656 C 578.7966918945312 137.89036560058594 579.7000122070312 138.07369995117188 580.5800170898438 138.28036499023438 C 581.4666748046875 138.48703002929688 582.3633422851562 138.71035766601562 583.27001953125 138.9503631591797 L 583.27001953125 141.9503631591797 ZM 593.7369995117188 166.39036560058594 L 593.7369995117188 137.72036743164062 L 596.3469848632812 137.72036743164062 L 596.3469848632812 166.39036560058594 L 593.7369995117188 166.39036560058594 ZM 633.7665405273438 166.39036560058594 L 633.7665405273438 147.46035766601562 C 633.7665405273438 145.8737030029297 633.5531616210938 144.57037353515625 633.1265258789062 143.5503692626953 C 632.6998291015625 142.52369689941406 632.0932006835938 141.7136993408203 631.3065185546875 141.120361328125 C 630.5265502929688 140.52037048339844 629.5731811523438 140.10369873046875 628.446533203125 139.870361328125 C 627.3131713867188 139.63037109375 626.0465087890625 139.51036071777344 624.6465454101562 139.51036071777344 C 623.0198364257812 139.51036071777344 621.4232177734375 139.71035766601562 619.8565063476562 140.11036682128906 C 618.2898559570312 140.50369262695312 616.8098754882812 141.00369262695312 615.41650390625 141.61036682128906 C 614.0298461914062 142.21702575683594 612.7498779296875 142.88702392578125 611.5765380859375 143.620361328125 C 610.4098510742188 144.36036682128906 609.4232177734375 145.07037353515625 608.6165161132812 145.7503662109375 L 608.6165161132812 166.39036560058594 L 606.0065307617188 166.39036560058594 L 606.0065307617188 137.72036743164062 L 608.6165161132812 137.72036743164062 L 608.6165161132812 142.7503662109375 C 609.58984375 142.13702392578125 610.6632080078125 141.49037170410156 611.8365478515625 140.81036376953125 C 613.0165405273438 140.13702392578125 614.283203125 139.52037048339844 615.6365356445312 138.96035766601562 C 616.9965209960938 138.39370727539062 618.446533203125 137.93035888671875 619.9865112304688 137.57037353515625 C 621.533203125 137.21035766601562 623.1632080078125 137.03036499023438 624.8765258789062 137.03036499023438 C 626.8098754882812 137.03036499023438 628.4965209960938 137.26370239257812 629.9365234375 137.73036193847656 C 631.3765258789062 138.19703674316406 632.5731811523438 138.85702514648438 633.5265502929688 139.71035766601562 C 634.4798583984375 140.56370544433594 635.1931762695312 141.60037231445312 635.66650390625 142.82037353515625 C 636.1398315429688 144.03369140625 636.3765258789062 145.39370727539062 636.3765258789062 146.90036010742188 L 636.3765258789062 166.39036560058594 L 633.7665405273438 166.39036560058594 ZM 660.5526123046875 140.16036987304688 C 658.45263671875 140.16036987304688 656.6459350585938 140.30369567871094 655.1326293945312 140.59036254882812 C 653.6126098632812 140.870361328125 652.3626098632812 141.31036376953125 651.3826293945312 141.91036987304688 C 650.4026489257812 142.51036071777344 649.6759643554688 143.27703857421875 649.20263671875 144.21035766601562 C 648.7293090820312 145.13702392578125 648.4926147460938 146.2503662109375 648.4926147460938 147.5503692626953 L 648.4926147460938 150.74037170410156 L 672.9926147460938 150.74037170410156 L 672.9926147460938 153.18035888671875 L 648.4926147460938 153.18035888671875 L 648.4926147460938 166.39036560058594 L 645.8826293945312 166.39036560058594 L 645.8826293945312 147.11036682128906 C 645.8826293945312 145.63037109375 646.1426391601562 144.30703735351562 646.66259765625 143.14036560058594 C 647.1892700195312 141.97369384765625 648.0226440429688 140.99037170410156 649.16259765625 140.19036865234375 C 650.3026123046875 139.39036560058594 651.7659301757812 138.77703857421875 653.5526123046875 138.35037231445312 C 655.3392944335938 137.93035888671875 657.499267578125 137.72036743164062 660.0325927734375 137.72036743164062 L 673.41259765625 137.72036743164062 L 673.41259765625 140.16036987304688 L 660.5526123046875 140.16036987304688 ZM 709.734130859375 164.89036560058594 C 708.5675048828125 165.2503662109375 707.484130859375 165.56036376953125 706.484130859375 165.8203582763672 C 705.484130859375 166.07369995117188 704.4974975585938 166.28036499023438 703.524169921875 166.44036865234375 C 702.544189453125 166.60037231445312 701.5508422851562 166.72036743164062 700.544189453125 166.8003692626953 C 699.5374755859375 166.8737030029297 698.427490234375 166.91036987304688 697.2141723632812 166.91036987304688 C 694.407470703125 166.91036987304688 691.870849609375 166.5703582763672 689.6041870117188 165.89036560058594 C 687.330810546875 165.2103729248047 685.3975219726562 164.23370361328125 683.8041381835938 162.9603729248047 C 682.2174682617188 161.68702697753906 680.9908447265625 160.14369201660156 680.1241455078125 158.3303680419922 C 679.26416015625 156.52369689941406 678.8341674804688 154.4936981201172 678.8341674804688 152.24037170410156 C 678.8341674804688 150.05369567871094 679.2474975585938 148.0503692626953 680.0741577148438 146.23036193847656 C 680.9008178710938 144.41036987304688 682.0574951171875 142.8437042236328 683.544189453125 141.53036499023438 C 685.0374755859375 140.22369384765625 686.82080078125 139.21035766601562 688.8941650390625 138.49037170410156 C 690.9674682617188 137.76370239257812 693.254150390625 137.40036010742188 695.754150390625 137.40036010742188 C 698.3541870117188 137.40036010742188 700.6708374023438 137.7503662109375 702.7041625976562 138.4503631591797 C 704.7374877929688 139.14370727539062 706.4508056640625 140.13702392578125 707.8441772460938 141.43035888671875 C 709.2308349609375 142.72369384765625 710.2874755859375 144.293701171875 711.01416015625 146.14036560058594 C 711.734130859375 147.98036193847656 712.0941772460938 150.05703735351562 712.0941772460938 152.370361328125 L 712.0941772460938 153.01036071777344 L 681.524169921875 153.01036071777344 C 681.677490234375 154.7903594970703 682.1241455078125 156.39703369140625 682.8641357421875 157.8303680419922 C 683.5974731445312 159.26370239257812 684.6441650390625 160.48370361328125 686.004150390625 161.49037170410156 C 687.3574829101562 162.49037170410156 689.024169921875 163.2570343017578 691.004150390625 163.7903594970703 C 692.9908447265625 164.3303680419922 695.3041381835938 164.60037231445312 697.9441528320312 164.60037231445312 C 699.07080078125 164.60037231445312 700.2141723632812 164.52369689941406 701.3741455078125 164.370361328125 C 702.5274658203125 164.21702575683594 703.6307983398438 164.01036071777344 704.6841430664062 163.7503662109375 C 705.744140625 163.49037170410156 706.7141723632812 163.19703674316406 707.5941772460938 162.870361328125 C 708.4674682617188 162.543701171875 709.1808471679688 162.20703125 709.734130859375 161.86036682128906 L 709.734130859375 164.89036560058594 M 709.5341796875 150.74037170410156 C 709.4341430664062 149.28036499023438 709.1041870117188 147.88369750976562 708.544189453125 146.5503692626953 C 707.9908447265625 145.22369384765625 707.1608276367188 144.05369567871094 706.0541381835938 143.0403594970703 C 704.947509765625 142.02037048339844 703.544189453125 141.2136993408203 701.8441772460938 140.620361328125 C 700.1375122070312 140.02037048339844 698.0941772460938 139.72036743164062 695.7141723632812 139.72036743164062 C 693.4741821289062 139.72036743164062 691.51416015625 140.02037048339844 689.8341674804688 140.620361328125 C 688.1475219726562 141.2136993408203 686.7208251953125 142.01702880859375 685.5541381835938 143.03036499023438 C 684.3807983398438 144.0370330810547 683.4608154296875 145.20370483398438 682.794189453125 146.53036499023438 C 682.1275024414062 147.8636932373047 681.7041625976562 149.26702880859375 681.524169921875 150.74037170410156 L 709.5341796875 150.74037170410156 ZM 749.1395263671875 164.120361328125 C 748.1328735351562 164.53369140625 747.1395263671875 164.9136962890625 746.1595458984375 165.26036071777344 C 745.1795654296875 165.60702514648438 744.1595458984375 165.9070281982422 743.0995483398438 166.16036987304688 C 742.0462036132812 166.4136962890625 740.9362182617188 166.60702514648438 739.76953125 166.74037170410156 C 738.59619140625 166.88037109375 737.3228759765625 166.9503631591797 735.9495239257812 166.9503631591797 C 734.2495727539062 166.9503631591797 732.6162109375 166.81370544433594 731.049560546875 166.5403594970703 C 729.48291015625 166.26036071777344 728.0261840820312 165.84036254882812 726.6795654296875 165.28036499023438 C 725.3328857421875 164.72703552246094 724.1095581054688 164.0370330810547 723.009521484375 163.2103729248047 C 721.9095458984375 162.38369750976562 720.9661865234375 161.4203643798828 720.1795654296875 160.3203582763672 C 719.3928833007812 159.22036743164062 718.7861938476562 157.98036193847656 718.3595581054688 156.60037231445312 C 717.9395751953125 155.22703552246094 717.7295532226562 153.71702575683594 717.7295532226562 152.07037353515625 C 717.7295532226562 150.43035888671875 717.9395751953125 148.9237060546875 718.3595581054688 147.5503692626953 C 718.7861938476562 146.1703643798828 719.3928833007812 144.93035888671875 720.1795654296875 143.8303680419922 C 720.9661865234375 142.73036193847656 721.9095458984375 141.76702880859375 723.009521484375 140.94036865234375 C 724.1095581054688 140.1136932373047 725.3328857421875 139.4203643798828 726.6795654296875 138.86036682128906 C 728.0261840820312 138.30703735351562 729.4795532226562 137.89036560058594 731.03955078125 137.61036682128906 C 732.5995483398438 137.3303680419922 734.2362060546875 137.19036865234375 735.9495239257812 137.19036865234375 C 737.3228759765625 137.19036865234375 738.59619140625 137.26036071777344 739.76953125 137.40036010742188 C 740.9362182617188 137.5403594970703 742.0462036132812 137.73703002929688 743.0995483398438 137.99037170410156 C 744.1595458984375 138.23703002929688 745.1795654296875 138.53036499023438 746.1595458984375 138.870361328125 C 747.1395263671875 139.21702575683594 748.1328735351562 139.59703063964844 749.1395263671875 140.01036071777344 L 749.1395263671875 143.14036560058594 C 748.34619140625 142.64036560058594 747.4962158203125 142.1670379638672 746.5895385742188 141.72036743164062 C 745.682861328125 141.27369689941406 744.7062377929688 140.88369750976562 743.6595458984375 140.5503692626953 C 742.606201171875 140.21702575683594 741.48291015625 139.95370483398438 740.28955078125 139.76036071777344 C 739.0895385742188 139.56703186035156 737.8095703125 139.47036743164062 736.4495239257812 139.47036743164062 C 733.6895751953125 139.47036743164062 731.3028564453125 139.77037048339844 729.28955078125 140.370361328125 C 727.26953125 140.9636993408203 725.6029052734375 141.80703735351562 724.28955078125 142.90036010742188 C 722.9761962890625 143.9936981201172 722.0028686523438 145.31703186035156 721.3695678710938 146.870361328125 C 720.7362060546875 148.4170379638672 720.4195556640625 150.15036010742188 720.4195556640625 152.07037353515625 C 720.4195556640625 153.99037170410156 720.7362060546875 155.72369384765625 721.3695678710938 157.27037048339844 C 722.0028686523438 158.81703186035156 722.9761962890625 160.13369750976562 724.28955078125 161.22036743164062 C 725.6029052734375 162.31370544433594 727.26953125 163.1570281982422 729.28955078125 163.7503662109375 C 731.3028564453125 164.3437042236328 733.6895751953125 164.64036560058594 736.4495239257812 164.64036560058594 C 737.8095703125 164.64036560058594 739.0995483398438 164.5403594970703 740.3195190429688 164.34036254882812 C 741.5328979492188 164.14703369140625 742.6728515625 163.88369750976562 743.7395629882812 163.5503692626953 C 744.8062133789062 163.21702575683594 745.7861938476562 162.8303680419922 746.6795654296875 162.39036560058594 C 747.5795288085938 161.95703125 748.3995361328125 161.49703979492188 749.1395263671875 161.01036071777344 L 749.1395263671875 164.120361328125 L 749.1395263671875 164.120361328125 ZM 768.4921264648438 140.09036254882812 L 768.4921264648438 166.39036560058594 L 765.912109375 166.39036560058594 L 765.912109375 140.09036254882812 L 752.8621215820312 140.09036254882812 L 752.8621215820312 137.72036743164062 L 781.5421142578125 137.72036743164062 L 781.5421142578125 140.09036254882812 L 768.4921264648438 140.09036254882812 ZM 787.17041015625 166.39036560058594 L 787.17041015625 137.72036743164062 L 789.7803955078125 137.72036743164062 L 789.7803955078125 166.39036560058594 L 787.17041015625 166.39036560058594 ZM 827.2000122070312 166.39036560058594 L 827.2000122070312 147.46035766601562 C 827.2000122070312 145.8737030029297 826.9866333007812 144.57037353515625 826.5599975585938 143.5503692626953 C 826.13330078125 142.52369689941406 825.5266723632812 141.7136993408203 824.739990234375 141.120361328125 C 823.9600219726562 140.52037048339844 823.0066528320312 140.10369873046875 821.8800048828125 139.870361328125 C 820.7466430664062 139.63037109375 819.47998046875 139.51036071777344 818.0800170898438 139.51036071777344 C 816.4533081054688 139.51036071777344 814.856689453125 139.71035766601562 813.2899780273438 140.11036682128906 C 811.7233276367188 140.50369262695312 810.2433471679688 141.00369262695312 808.8499755859375 141.61036682128906 C 807.4633178710938 142.21702575683594 806.183349609375 142.88702392578125 805.010009765625 143.620361328125 C 803.8433227539062 144.36036682128906 802.856689453125 145.07037353515625 802.0499877929688 145.7503662109375 L 802.0499877929688 166.39036560058594 L 799.4400024414062 166.39036560058594 L 799.4400024414062 137.72036743164062 L 802.0499877929688 137.72036743164062 L 802.0499877929688 142.7503662109375 C 803.0233154296875 142.13702392578125 804.0966796875 141.49037170410156 805.27001953125 140.81036376953125 C 806.4500122070312 140.13702392578125 807.7166748046875 139.52037048339844 809.0700073242188 138.96035766601562 C 810.4299926757812 138.39370727539062 811.8800048828125 137.93035888671875 813.4199829101562 137.57037353515625 C 814.9666748046875 137.21035766601562 816.5966796875 137.03036499023438 818.3099975585938 137.03036499023438 C 820.2433471679688 137.03036499023438 821.9299926757812 137.26370239257812 823.3699951171875 137.73036193847656 C 824.8099975585938 138.19703674316406 826.0066528320312 138.85702514648438 826.9600219726562 139.71035766601562 C 827.913330078125 140.56370544433594 828.6266479492188 141.60037231445312 829.0999755859375 142.82037353515625 C 829.5733032226562 144.03369140625 829.8099975585938 145.39370727539062 829.8099975585938 146.90036010742188 L 829.8099975585938 166.39036560058594 L 827.2000122070312 166.39036560058594 ZM 856.196044921875 137.19036865234375 C 857.522705078125 137.19036865234375 858.7560424804688 137.2570343017578 859.8960571289062 137.39036560058594 C 861.0360107421875 137.52369689941406 862.1260375976562 137.7136993408203 863.166015625 137.96035766601562 C 864.2127075195312 138.2003631591797 865.2293701171875 138.49037170410156 866.2160034179688 138.8303680419922 C 867.2026977539062 139.1703643798828 868.1993408203125 139.5503692626953 869.2060546875 139.97036743164062 L 869.2060546875 143.14036560058594 C 868.4127197265625 142.64036560058594 867.5660400390625 142.1670379638672 866.666015625 141.72036743164062 C 865.7660522460938 141.27369689941406 864.7993774414062 140.88369750976562 863.7660522460938 140.5503692626953 C 862.7260131835938 140.21702575683594 861.6126708984375 139.95370483398438 860.426025390625 139.76036071777344 C 859.2393798828125 139.56703186035156 857.9627075195312 139.47036743164062 856.5960083007812 139.47036743164062 C 853.8160400390625 139.47036743164062 851.3893432617188 139.76370239257812 849.3160400390625 140.35037231445312 C 847.24267578125 140.93035888671875 845.5160522460938 141.76370239257812 844.1360473632812 142.85037231445312 C 842.7626953125 143.93702697753906 841.7293701171875 145.2570343017578 841.0360107421875 146.81036376953125 C 840.349365234375 148.370361328125 840.0060424804688 150.1237030029297 840.0060424804688 152.07037353515625 C 840.0060424804688 153.89703369140625 840.3427124023438 155.5770263671875 841.0160522460938 157.11036682128906 C 841.6893920898438 158.65036010742188 842.7127075195312 159.97703552246094 844.0860595703125 161.09036254882812 C 845.4526977539062 162.20370483398438 847.166015625 163.07369995117188 849.2260131835938 163.7003631591797 C 851.2860107421875 164.3270263671875 853.7026977539062 164.64036560058594 856.4760131835938 164.64036560058594 C 857.5560302734375 164.64036560058594 858.62939453125 164.59703063964844 859.696044921875 164.51036071777344 C 860.7626953125 164.43035888671875 861.7693481445312 164.32369995117188 862.7160034179688 164.19036865234375 C 863.656005859375 164.05703735351562 864.5160522460938 163.91036987304688 865.2960205078125 163.7503662109375 C 866.0760498046875 163.59036254882812 866.7393798828125 163.42703247070312 867.2860107421875 163.26036071777344 L 867.2860107421875 154.56036376953125 L 855.6160278320312 154.56036376953125 L 855.6160278320312 152.120361328125 L 869.8860473632812 152.120361328125 L 869.8860473632812 164.72036743164062 C 868.859375 165.0803680419922 867.8193359375 165.40036010742188 866.7660522460938 165.68035888671875 C 865.7193603515625 165.9603729248047 864.6360473632812 166.19369506835938 863.5160522460938 166.38037109375 C 862.3960571289062 166.56703186035156 861.2327270507812 166.7103729248047 860.0260620117188 166.81036376953125 C 858.8260498046875 166.90370178222656 857.5660400390625 166.9503631591797 856.2460327148438 166.9503631591797 C 853.5460205078125 166.9503631591797 851.0393676757812 166.65036010742188 848.7260131835938 166.0503692626953 C 846.4193725585938 165.44369506835938 844.4193725585938 164.52369689941406 842.7260131835938 163.2903594970703 C 841.0393676757812 162.05703735351562 839.7160034179688 160.51036071777344 838.7560424804688 158.65036010742188 C 837.7960205078125 156.78369140625 837.3160400390625 154.59036254882812 837.3160400390625 152.07037353515625 C 837.3160400390625 150.39036560058594 837.5393676757812 148.85702514648438 837.9860229492188 147.47036743164062 C 838.426025390625 146.09036254882812 839.0526733398438 144.84703063964844 839.8660278320312 143.74037170410156 C 840.6793823242188 142.63369750976562 841.6627197265625 141.6703643798828 842.8160400390625 140.85037231445312 C 843.9627075195312 140.02369689941406 845.2360229492188 139.3437042236328 846.6360473632812 138.81036376953125 C 848.0293579101562 138.27703857421875 849.53271484375 137.8737030029297 851.1460571289062 137.60037231445312 C 852.7593383789062 137.3270263671875 854.4426879882812 137.19036865234375 856.196044921875 137.19036865234375 Z" transform="matrix(1.525733470916748, 0, 0, 1.525733470916748, -465.1930847167969, -196.14581298828125)" style="fill: rgb(103, 188, 255); white-space: pre; color: rgb(51, 51, 51);"/></svg>