<?xml version="1.0" encoding="utf-8"?>
<!-- Generator: Adobe Illustrator 24.1.2, SVG Export Plug-In . SVG Version: 6.00 Build 0)  -->
<svg version="1.1" id="Layer_1" xmlns="http://www.w3.org/2000/svg" xmlns:xlink="http://www.w3.org/1999/xlink" x="0px" y="0px"
	 viewBox="0 0 864 162" style="enable-background:new 0 0 864 162;" xml:space="preserve">
<style type="text/css">
	.st0{fill:#67BCFF;}
	.st1{fill:#148FF1;}
	.st2{fill:#005BA2;}
</style>
<g transform="matrix(0.49386098980903625, 0, 0, 0.49386098980903625, -584.118408203125, -263.44108295440674)">
	<g transform="matrix(1, 0, 0, 1, 0, 0)">
		<path class="st0" d="M1817.98,732.04c0,35.3-28.7,64-64,64c-35.3,0-64-28.7-64-64s64-126,64-126S1817.98,696.74,1817.98,732.04z"
			/>
		<g transform="matrix(0.9999999999999999, 0, 0, 0.9999999999999999, 884.447837390581, 41.99891965262532)">
			<path class="st1" d="M869.53,782.75c-27.2,0-52.8-4.4-72.1-12.5c-20.9-8.7-32.4-20.8-32.4-34.2c0-7.4,3.6-18.3,20.6-28.4
				c2.6-1.5,6-0.7,7.5,1.9c1.5,2.6,0.7,6-1.9,7.5c-9.8,5.8-15.2,12.5-15.2,18.9c0,8.5,9.3,17.3,25.6,24
				c18.1,7.5,42.2,11.6,67.9,11.6s49.9-4.1,67.9-11.6c16.3-6.8,25.6-15.5,25.6-24c0-7.9-7.9-14.4-14.5-18.4c-2.6-1.6-3.4-5-1.8-7.6
				c1.6-2.6,5-3.4,7.6-1.8c16.3,10,19.7,20.6,19.7,27.8c0,13.4-11.5,25.5-32.4,34.2C922.33,778.25,896.73,782.75,869.53,782.75z"/>
		</g>
		<g transform="matrix(0.9999999999999999, 0, 0, 0.9999999999999999, 884.447837390581, 41.99891965262532)">
			<path class="st2" d="M869.53,801.45c-83.9,0-149.6-28.7-149.6-65.4c0-22.7,24.4-42.7,67-54.8c2.9-0.8,6,0.9,6.8,3.8
				c0.8,2.9-0.9,6-3.8,6.8c-36.4,10.3-59,27.2-59,44.2c0,26.3,55.7,54.4,138.6,54.4s138.6-28.1,138.6-54.4c0-16.8-22.3-33.6-58.2-44
				c-2.9-0.8-4.6-3.9-3.8-6.8c0.8-2.9,3.9-4.6,6.8-3.8c42,12.1,66.1,32,66.1,54.5C1019.13,772.75,953.43,801.45,869.53,801.45z"/>
		</g>
	</g>
</g>
<path class="st0" d="M52.03,35c0,2.81-0.29,5.3-0.87,7.48c-0.58,2.17-1.4,4.06-2.47,5.68c-1.06,1.62-2.34,2.99-3.86,4.1
	c-1.52,1.13-3.2,2.03-5.07,2.72c-1.86,0.67-3.88,1.16-6.06,1.48c-2.17,0.31-4.45,0.46-6.85,0.46H4.27V13.16h22.52
	c3.58,0,6.91,0.35,9.99,1.04c3.07,0.7,5.74,1.9,8.01,3.59c2.26,1.69,4.03,3.94,5.31,6.74C51.38,27.33,52.03,30.81,52.03,35
	 M47.92,35c0-2.38-0.23-4.48-0.7-6.3c-0.47-1.82-1.13-3.41-2-4.76c-0.87-1.35-1.94-2.48-3.19-3.39c-1.25-0.92-2.66-1.65-4.23-2.21
	c-1.58-0.57-3.29-0.97-5.13-1.21c-1.85-0.23-3.81-0.35-5.89-0.35H8.25v36.47h18.54c3.11,0,5.97-0.28,8.56-0.84
	c2.59-0.57,4.82-1.55,6.67-2.93c1.86-1.39,3.31-3.27,4.35-5.61C47.4,41.52,47.92,38.57,47.92,35z M63.61,56.9V13.16h3.98V56.9H63.61
	z M114.76,16.53c-0.62-0.19-1.47-0.4-2.56-0.63c-1.1-0.22-2.51-0.34-4.23-0.34c-2.38,0-4.61,0.29-6.7,0.88
	c-2.1,0.58-4.04,1.37-5.83,2.36c-1.8,1-3.46,2.16-4.99,3.49c-1.53,1.32-2.9,2.73-4.13,4.21V56.9h-3.98V13.16h3.98v8.91
	c1.42-1.46,2.97-2.81,4.64-4.04c1.66-1.23,3.41-2.29,5.26-3.17c1.85-0.87,3.79-1.56,5.81-2.06c2.02-0.5,4.12-0.75,6.29-0.75
	c0.74,0,1.41,0.02,2,0.05c0.6,0.03,1.15,0.07,1.65,0.12c0.5,0.05,0.97,0.11,1.42,0.17c0.45,0.07,0.91,0.15,1.37,0.23V16.53
	L114.76,16.53z M166.19,54.62c-1.78,0.55-3.43,1.02-4.96,1.42c-1.53,0.39-3.03,0.7-4.52,0.95c-1.5,0.24-3.01,0.43-4.55,0.55
	c-1.54,0.11-3.23,0.17-5.08,0.17c-4.28,0-8.15-0.52-11.61-1.56c-3.47-1.04-6.42-2.53-8.85-4.47c-2.42-1.94-4.29-4.3-5.61-7.06
	c-1.31-2.76-1.97-5.85-1.97-9.29c0-3.34,0.63-6.39,1.89-9.17c1.26-2.78,3.03-5.17,5.29-7.17c2.28-1.99,5-3.54,8.16-4.64
	c3.16-1.11,6.65-1.66,10.47-1.66c3.97,0,7.5,0.53,10.6,1.6c3.1,1.06,5.72,2.57,7.84,4.55c2.12,1.97,3.73,4.37,4.84,7.19
	c1.1,2.81,1.65,5.98,1.65,9.51v0.98h-46.64c0.23,2.72,0.92,5.17,2.04,7.35c1.12,2.19,2.72,4.05,4.79,5.58
	c2.06,1.53,4.61,2.7,7.63,3.51c3.03,0.82,6.56,1.24,10.59,1.24c1.72,0,3.46-0.12,5.23-0.35c1.76-0.23,3.44-0.55,5.05-0.95
	c1.62-0.4,3.1-0.84,4.44-1.34c1.33-0.5,2.42-1.01,3.27-1.54V54.62 M165.89,33.03c-0.15-2.23-0.66-4.36-1.51-6.39
	c-0.84-2.02-2.11-3.81-3.8-5.36c-1.69-1.56-3.83-2.79-6.42-3.69c-2.6-0.92-5.72-1.37-9.35-1.37c-3.42,0-6.41,0.46-8.97,1.37
	c-2.57,0.91-4.75,2.13-6.53,3.68c-1.79,1.54-3.19,3.32-4.21,5.34c-1.02,2.03-1.66,4.18-1.94,6.42H165.89z M226.31,53.44
	c-1.54,0.63-3.05,1.21-4.55,1.74c-1.5,0.53-3.05,0.99-4.67,1.37c-1.61,0.39-3.3,0.68-5.08,0.88c-1.79,0.21-3.73,0.32-5.83,0.32
	c-2.59,0-5.09-0.21-7.48-0.63c-2.39-0.43-4.61-1.07-6.67-1.92c-2.05-0.84-3.92-1.9-5.6-3.16c-1.68-1.26-3.12-2.73-4.32-4.41
	c-1.2-1.68-2.13-3.57-2.78-5.68c-0.64-2.1-0.96-4.4-0.96-6.91c0-2.5,0.32-4.8,0.96-6.9c0.65-2.11,1.58-4,2.78-5.68
	c1.2-1.68,2.64-3.15,4.32-4.41c1.68-1.26,3.54-2.32,5.6-3.17c2.05-0.84,4.27-1.48,6.65-1.91c2.38-0.43,4.88-0.64,7.49-0.64
	c2.1,0,4.04,0.11,5.83,0.32c1.78,0.21,3.47,0.51,5.08,0.9c1.62,0.38,3.17,0.82,4.67,1.34c1.5,0.53,3.01,1.11,4.55,1.74v4.78
	c-1.21-0.76-2.51-1.49-3.89-2.17c-1.38-0.68-2.87-1.28-4.47-1.79c-1.61-0.51-3.32-0.91-5.14-1.21c-1.83-0.29-3.78-0.44-5.86-0.44
	c-4.21,0-7.85,0.46-10.92,1.37c-3.08,0.91-5.62,2.19-7.63,3.86c-2,1.67-3.49,3.69-4.46,6.06c-0.97,2.36-1.45,5-1.45,7.93
	c0,2.93,0.48,5.57,1.45,7.93c0.97,2.36,2.45,4.37,4.46,6.03c2,1.67,4.55,2.95,7.63,3.86c3.07,0.91,6.71,1.36,10.92,1.36
	c2.07,0,4.04-0.15,5.9-0.46c1.85-0.29,3.59-0.7,5.22-1.21c1.63-0.51,3.12-1.1,4.49-1.77c1.37-0.66,2.62-1.36,3.75-2.11V53.44
	L226.31,53.44z M255.84,16.78V56.9h-3.94V16.78h-19.91v-3.62h43.76v3.62H255.84z M356.61,35c0,2.81-0.29,5.3-0.87,7.48
	c-0.58,2.17-1.4,4.06-2.47,5.68c-1.06,1.62-2.34,2.99-3.86,4.1c-1.52,1.13-3.2,2.03-5.07,2.72c-1.86,0.67-3.88,1.16-6.06,1.48
	c-2.17,0.31-4.45,0.46-6.85,0.46h-22.58V13.16h22.52c3.58,0,6.91,0.35,9.99,1.04c3.07,0.7,5.74,1.9,8.01,3.59
	c2.26,1.69,4.03,3.94,5.31,6.74C355.97,27.33,356.61,30.81,356.61,35 M352.5,35c0-2.38-0.23-4.48-0.7-6.3
	c-0.47-1.82-1.13-3.41-2-4.76c-0.87-1.35-1.94-2.48-3.19-3.39c-1.25-0.92-2.66-1.65-4.23-2.21c-1.58-0.57-3.29-0.97-5.13-1.21
	c-1.85-0.23-3.81-0.35-5.89-0.35h-18.54v36.47h18.54c3.11,0,5.97-0.28,8.56-0.84c2.59-0.57,4.82-1.55,6.67-2.93
	c1.86-1.39,3.31-3.27,4.35-5.61C351.99,41.52,352.5,38.57,352.5,35z M368.2,56.9V13.16h3.98V56.9H368.2z M422.27,19.62
	c-0.83-0.4-1.79-0.82-2.87-1.28c-1.09-0.46-2.32-0.87-3.71-1.24c-1.39-0.36-2.96-0.66-4.7-0.9c-1.74-0.24-3.67-0.37-5.8-0.37
	c-2.57,0-4.86,0.15-6.87,0.44c-2,0.29-3.7,0.76-5.1,1.39c-1.38,0.62-2.44,1.41-3.17,2.36c-0.73,0.96-1.1,2.1-1.1,3.42
	c0,1.1,0.34,2.06,1.02,2.9c0.69,0.82,1.63,1.56,2.81,2.2c1.18,0.63,2.56,1.21,4.13,1.72c1.59,0.52,3.27,1.01,5.03,1.46
	c1.77,0.46,3.6,0.92,5.48,1.39c1.88,0.47,3.71,0.97,5.48,1.51c1.77,0.54,3.45,1.14,5.03,1.82c1.58,0.67,2.95,1.45,4.13,2.35
	c1.18,0.88,2.12,1.9,2.81,3.05c0.69,1.15,1.04,2.48,1.04,3.98c0,1.63-0.31,3.05-0.93,4.27c-0.61,1.22-1.44,2.27-2.5,3.16
	c-1.05,0.88-2.28,1.62-3.69,2.2c-1.41,0.58-2.92,1.04-4.52,1.39c-1.61,0.34-3.27,0.57-4.97,0.72c-1.71,0.13-3.39,0.2-5.05,0.2
	c-3.79,0-7.24-0.27-10.33-0.82c-3.08-0.55-6.03-1.3-8.83-2.26v-4.87c2.89,1.72,5.94,2.89,9.15,3.52c3.21,0.64,6.6,0.96,10.15,0.96
	c2.5,0,4.82-0.15,6.94-0.44c2.12-0.31,3.95-0.78,5.51-1.42c1.55-0.65,2.75-1.5,3.62-2.53c0.85-1.04,1.28-2.31,1.28-3.83
	c0-1.21-0.35-2.27-1.04-3.17c-0.68-0.92-1.61-1.72-2.79-2.41c-1.18-0.69-2.56-1.3-4.15-1.83c-1.58-0.53-3.24-1.02-5-1.48
	c-1.77-0.46-3.59-0.9-5.46-1.33c-1.88-0.44-3.7-0.91-5.46-1.42c-1.76-0.51-3.43-1.08-5.02-1.72c-1.58-0.64-2.95-1.39-4.13-2.24
	c-1.18-0.86-2.12-1.86-2.81-2.98c-0.69-1.13-1.04-2.44-1.04-3.92c0-1.46,0.28-2.77,0.84-3.91c0.55-1.13,1.31-2.11,2.27-2.94
	c0.97-0.82,2.1-1.52,3.39-2.07c1.29-0.57,2.68-1.02,4.17-1.34c1.47-0.33,3.01-0.56,4.59-0.72c1.6-0.15,3.17-0.23,4.71-0.23
	c1.7,0,3.31,0.08,4.82,0.23c1.52,0.15,2.98,0.35,4.39,0.6c1.41,0.24,2.79,0.52,4.13,0.84c1.35,0.32,2.72,0.66,4.1,1.02V19.62z
	 M438.24,56.9V13.16h3.98V56.9H438.24z M499.31,56.9V28.02c0-2.42-0.33-4.41-0.98-5.97c-0.65-1.57-1.58-2.8-2.78-3.71
	c-1.19-0.92-2.64-1.55-4.36-1.91c-1.73-0.37-3.66-0.55-5.8-0.55c-2.48,0-4.92,0.31-7.31,0.92c-2.39,0.6-4.65,1.36-6.77,2.29
	c-2.12,0.93-4.07,1.95-5.86,3.07c-1.78,1.13-3.29,2.21-4.52,3.25V56.9h-3.98V13.16h3.98v7.67c1.49-0.94,3.12-1.92,4.91-2.96
	c1.8-1.03,3.73-1.97,5.8-2.82c2.07-0.86,4.29-1.57,6.64-2.12c2.36-0.55,4.85-0.82,7.46-0.82c2.95,0,5.52,0.36,7.72,1.07
	c2.2,0.71,4.02,1.72,5.48,3.02c1.45,1.3,2.54,2.88,3.27,4.75c0.72,1.85,1.08,3.93,1.08,6.22V56.9H499.31z M540.18,16.88
	c-3.2,0-5.96,0.22-8.27,0.66c-2.32,0.43-4.23,1.1-5.72,2.01c-1.5,0.92-2.6,2.09-3.33,3.51c-0.72,1.41-1.08,3.11-1.08,5.1v4.87h37.38
	v3.72h-37.38V56.9h-3.98V27.49c0-2.26,0.4-4.28,1.19-6.06c0.8-1.78,2.08-3.28,3.81-4.5c1.74-1.22,3.97-2.16,6.7-2.81
	c2.73-0.64,6.02-0.96,9.89-0.96h20.41v3.72H540.18z M615.22,54.62c-1.78,0.55-3.43,1.02-4.96,1.42c-1.53,0.39-3.03,0.7-4.52,0.95
	c-1.5,0.24-3.01,0.43-4.55,0.55c-1.54,0.11-3.23,0.17-5.08,0.17c-4.28,0-8.15-0.52-11.61-1.56c-3.47-1.04-6.42-2.53-8.85-4.47
	c-2.42-1.94-4.29-4.3-5.61-7.06c-1.31-2.76-1.97-5.85-1.97-9.29c0-3.34,0.63-6.39,1.89-9.17c1.26-2.78,3.03-5.17,5.29-7.17
	c2.28-1.99,5-3.54,8.16-4.64c3.16-1.11,6.65-1.66,10.47-1.66c3.97,0,7.5,0.53,10.6,1.6c3.1,1.06,5.72,2.57,7.84,4.55
	c2.12,1.97,3.73,4.37,4.84,7.19c1.1,2.81,1.65,5.98,1.65,9.51v0.98h-46.64c0.23,2.72,0.92,5.17,2.04,7.35
	c1.12,2.19,2.72,4.05,4.79,5.58c2.06,1.53,4.61,2.7,7.63,3.51c3.03,0.82,6.56,1.24,10.59,1.24c1.72,0,3.46-0.12,5.23-0.35
	c1.76-0.23,3.44-0.55,5.05-0.95c1.62-0.4,3.1-0.84,4.44-1.34c1.33-0.5,2.42-1.01,3.27-1.54V54.62 M614.91,33.03
	c-0.15-2.23-0.66-4.36-1.51-6.39c-0.84-2.02-2.11-3.81-3.8-5.36c-1.69-1.56-3.83-2.79-6.42-3.69c-2.6-0.92-5.72-1.37-9.35-1.37
	c-3.42,0-6.41,0.46-8.97,1.37c-2.57,0.91-4.75,2.13-6.53,3.68c-1.79,1.54-3.19,3.32-4.21,5.34c-1.02,2.03-1.66,4.18-1.94,6.42
	H614.91z M675.34,53.44c-1.54,0.63-3.05,1.21-4.55,1.74c-1.5,0.53-3.05,0.99-4.67,1.37c-1.61,0.39-3.3,0.68-5.08,0.88
	c-1.79,0.21-3.73,0.32-5.83,0.32c-2.59,0-5.09-0.21-7.48-0.63c-2.39-0.43-4.61-1.07-6.67-1.92c-2.05-0.84-3.92-1.9-5.6-3.16
	c-1.68-1.26-3.12-2.73-4.32-4.41c-1.2-1.68-2.13-3.57-2.78-5.68c-0.64-2.1-0.96-4.4-0.96-6.91c0-2.5,0.32-4.8,0.96-6.9
	c0.65-2.11,1.58-4,2.78-5.68c1.2-1.68,2.64-3.15,4.32-4.41c1.68-1.26,3.54-2.32,5.6-3.17c2.05-0.84,4.27-1.48,6.65-1.91
	c2.38-0.43,4.88-0.64,7.49-0.64c2.1,0,4.04,0.11,5.83,0.32c1.78,0.21,3.47,0.51,5.08,0.9c1.62,0.38,3.17,0.82,4.67,1.34
	c1.5,0.53,3.01,1.11,4.55,1.74v4.78c-1.21-0.76-2.51-1.49-3.89-2.17c-1.38-0.68-2.87-1.28-4.47-1.79c-1.61-0.51-3.32-0.91-5.14-1.21
	c-1.83-0.29-3.78-0.44-5.86-0.44c-4.21,0-7.85,0.46-10.92,1.37c-3.08,0.91-5.62,2.19-7.63,3.86c-2,1.67-3.49,3.69-4.46,6.06
	c-0.97,2.36-1.45,5-1.45,7.93c0,2.93,0.48,5.57,1.45,7.93c0.97,2.36,2.45,4.37,4.46,6.03c2,1.67,4.55,2.95,7.63,3.86
	c3.07,0.91,6.71,1.36,10.92,1.36c2.08,0,4.04-0.15,5.9-0.46c1.85-0.29,3.59-0.7,5.22-1.21c1.63-0.51,3.12-1.1,4.49-1.77
	c1.37-0.66,2.62-1.36,3.75-2.11V53.44L675.34,53.44z M704.87,16.78V56.9h-3.94V16.78h-19.91v-3.62h43.76v3.62H704.87z M733.37,56.9
	V13.16h3.98V56.9H733.37z M794.44,56.9V28.02c0-2.42-0.33-4.41-0.98-5.97c-0.65-1.57-1.58-2.8-2.78-3.71
	c-1.19-0.92-2.64-1.55-4.36-1.91c-1.73-0.37-3.66-0.55-5.8-0.55c-2.48,0-4.92,0.31-7.31,0.92c-2.39,0.6-4.65,1.36-6.77,2.29
	c-2.12,0.93-4.07,1.95-5.86,3.07c-1.78,1.13-3.29,2.21-4.52,3.25V56.9h-3.98V13.16h3.98v7.67c1.49-0.94,3.12-1.92,4.91-2.96
	c1.8-1.03,3.73-1.97,5.8-2.82c2.07-0.86,4.29-1.57,6.64-2.12c2.36-0.55,4.85-0.82,7.46-0.82c2.95,0,5.52,0.36,7.72,1.07
	c2.2,0.71,4.02,1.72,5.48,3.02c1.45,1.3,2.54,2.88,3.26,4.75c0.72,1.85,1.08,3.93,1.08,6.22V56.9H794.44z M838.68,12.35
	c2.02,0,3.91,0.1,5.65,0.31c1.74,0.2,3.4,0.49,4.99,0.87c1.6,0.37,3.15,0.81,4.65,1.33c1.51,0.52,3.03,1.1,4.56,1.74v4.84
	c-1.21-0.76-2.5-1.49-3.88-2.17c-1.37-0.68-2.85-1.28-4.42-1.79c-1.59-0.51-3.29-0.91-5.1-1.21c-1.81-0.29-3.76-0.44-5.84-0.44
	c-4.24,0-7.94,0.45-11.11,1.34c-3.16,0.88-5.8,2.16-7.9,3.81c-2.1,1.66-3.67,3.67-4.73,6.04c-1.05,2.38-1.57,5.06-1.57,8.03
	c0,2.79,0.51,5.35,1.54,7.69c1.03,2.35,2.59,4.37,4.68,6.07c2.09,1.7,4.7,3.03,7.84,3.98c3.14,0.96,6.83,1.43,11.06,1.43
	c1.65,0,3.29-0.07,4.91-0.2c1.63-0.12,3.16-0.28,4.61-0.49c1.43-0.2,2.75-0.43,3.94-0.67c1.19-0.24,2.2-0.49,3.04-0.75V38.86H837.8
	v-3.72h21.77v19.22c-1.57,0.55-3.15,1.04-4.76,1.46c-1.6,0.43-3.25,0.78-4.96,1.07c-1.71,0.28-3.48,0.5-5.32,0.66
	c-1.83,0.14-3.75,0.21-5.77,0.21c-4.12,0-7.94-0.46-11.47-1.37c-3.52-0.93-6.57-2.33-9.15-4.21c-2.57-1.88-4.59-4.24-6.06-7.08
	c-1.46-2.85-2.2-6.19-2.2-10.04c0-2.56,0.34-4.9,1.02-7.02c0.67-2.11,1.63-4,2.87-5.69c1.24-1.69,2.74-3.16,4.5-4.41
	c1.75-1.26,3.69-2.3,5.83-3.11c2.13-0.81,4.42-1.43,6.88-1.85C833.44,12.56,836.01,12.35,838.68,12.35z"/>
</svg>
