<?xml version="1.0" encoding="utf-8"?>
<!-- Generator: Adobe Illustrator 24.1.2, SVG Export Plug-In . SVG Version: 6.00 Build 0)  -->
<svg version="1.1" id="Layer_1" xmlns="http://www.w3.org/2000/svg" xmlns:xlink="http://www.w3.org/1999/xlink" x="0px" y="0px"
	 viewBox="0 0 864 864" style="enable-background:new 0 0 864 864;" xml:space="preserve">
<style type="text/css">
	.st0{fill:#67BCFF;}
	.st1{fill:#148FF1;}
	.st2{fill:#005BA2;}
	.st3{fill:#404040;fill-opacity:0;}
</style>
<g>
	<g transform="matrix(0.49386098980903625, 0, 0, 0.49386098980903625, -584.118408203125, -263.44108295440674)">
		<g transform="matrix(1, 0, 0, 1, 0, 0)">
			<path class="st0" d="M2244.63,1457.08c0,102.93-83.69,186.62-186.62,186.62c-102.93,0-186.62-83.69-186.62-186.62
				s186.62-367.4,186.62-367.4S2244.63,1354.15,2244.63,1457.08z"/>
			<g transform="matrix(0.9999999999999999, 0, 0, 0.9999999999999999, 884.447837390581, 41.99891965262532)">
				<path class="st1" d="M1173.57,1685.38c-79.31,0-153.96-12.83-210.23-36.45c-60.94-25.37-94.47-60.65-94.47-99.72
					c0-21.58,10.5-53.36,60.07-82.81c7.58-4.37,17.5-2.04,21.87,5.54c4.37,7.58,2.04,17.5-5.54,21.87
					c-28.58,16.91-44.32,36.45-44.32,55.11c0,24.78,27.12,50.44,74.65,69.98c52.78,21.87,123.05,33.82,197.99,33.82
					c74.94,0,145.5-11.95,197.99-33.82c47.53-19.83,74.65-45.2,74.65-69.98c0-23.04-23.04-41.99-42.28-53.65
					c-7.58-4.67-9.91-14.58-5.25-22.16c4.67-7.58,14.58-9.91,22.16-5.25c47.53,29.16,57.44,60.07,57.44,81.06
					c0,39.07-33.53,74.35-94.47,99.72C1327.53,1672.26,1252.88,1685.38,1173.57,1685.38z"/>
			</g>
			<g transform="matrix(0.9999999999999999, 0, 0, 0.9999999999999999, 884.447837390581, 41.99891965262532)">
				<path class="st2" d="M1173.57,1739.91c-244.64,0-436.21-83.69-436.21-190.7c0-66.19,71.15-124.51,195.36-159.79
					c8.46-2.33,17.5,2.62,19.83,11.08c2.33,8.46-2.62,17.5-11.08,19.83c-106.14,30.03-172.04,79.31-172.04,128.88
					c0,76.69,162.41,158.62,404.14,158.62s404.14-81.94,404.14-158.62c0-48.99-65.02-97.97-169.7-128.3
					c-8.46-2.33-13.41-11.37-11.08-19.83c2.33-8.46,11.37-13.41,19.83-11.08c122.47,35.28,192.74,93.31,192.74,158.91
					C1609.78,1656.22,1418.21,1739.91,1173.57,1739.91z"/>
			</g>
		</g>
	</g>
	<g>
		<g>
			<path class="st3" d="M478.99,171.07c-3.84-3.54-8.72-6.34-14.62-8.4c-5.93-2.08-13.02-3.13-21.29-3.13
				c-7.78,0-14.58,1.04-20.42,3.13c-5.86,2.06-10.81,4.85-14.86,8.37c-4.07,3.5-7.27,7.55-9.58,12.15
				c-2.31,4.63-3.78,9.5-4.41,14.62h97.26c-0.35-5.07-1.49-9.92-3.44-14.55C485.71,178.65,482.83,174.58,478.99,171.07z"/>
			<path class="st0" d="M494.2,200.72H390.52l0.4-3.27c0.66-5.43,2.24-10.66,4.7-15.57c2.48-4.94,5.94-9.33,10.29-13.06
				c4.3-3.73,9.62-6.73,15.79-8.91c6.11-2.18,13.31-3.29,21.38-3.29c8.56,0,16.05,1.11,22.25,3.29c6.25,2.18,11.5,5.21,15.62,9
				c4.14,3.79,7.29,8.24,9.37,13.21c2.06,4.9,3.29,10.11,3.65,15.47L494.2,200.72z M397.24,194.89h90.6
				c-0.51-3.62-1.48-7.15-2.89-10.5c-1.75-4.2-4.42-7.95-7.93-11.17l-0.01-0.01c-3.53-3.25-8.11-5.88-13.6-7.79
				c-5.59-1.97-12.43-2.96-20.32-2.96c-7.41,0-13.95,0.99-19.44,2.96c-5.49,1.93-10.18,4.56-13.93,7.82
				c-3.77,3.24-6.76,7.02-8.89,11.26C399.17,187.8,397.97,191.29,397.24,194.89z"/>
		</g>
		<g>
			<path class="st3" d="M216.45,177.11c-1.99-3.08-4.41-5.65-7.26-7.71c-2.85-2.08-6.05-3.76-9.62-5.04
				c-3.59-1.3-7.48-2.21-11.67-2.74c-4.21-0.53-8.68-0.8-13.4-0.8h-42.19v82.99h42.19c7.08,0,13.58-0.64,19.48-1.91
				c5.9-1.3,10.96-3.52,15.17-6.67c4.24-3.17,7.54-7.43,9.9-12.78c2.36-5.32,3.54-12.05,3.54-20.17c0-5.42-0.53-10.2-1.6-14.34
				C219.94,183.8,218.42,180.19,216.45,177.11z"/>
			<path class="st0" d="M174.51,246.73h-45.1v-88.82h45.1c4.82,0,9.46,0.28,13.77,0.82c4.39,0.56,8.52,1.53,12.29,2.89
				c3.8,1.36,7.29,3.18,10.35,5.42c3.12,2.25,5.81,5.11,7.98,8.48l0.01,0.01c2.12,3.33,3.78,7.26,4.92,11.68
				c1.12,4.36,1.69,9.43,1.69,15.07c0,8.5-1.28,15.68-3.79,21.36c-2.55,5.78-6.19,10.47-10.81,13.93c-4.53,3.39-10.01,5.8-16.3,7.18
				C188.53,246.06,181.77,246.73,174.51,246.73z M135.23,240.9h39.27c6.85,0,13.19-0.62,18.86-1.85c5.46-1.2,10.18-3.27,14.04-6.15
				c3.81-2.85,6.83-6.76,8.97-11.62c2.19-4.93,3.29-11.32,3.29-19c0-5.15-0.51-9.73-1.51-13.62c-0.98-3.82-2.39-7.18-4.17-9.98
				c-1.79-2.76-3.98-5.09-6.52-6.93c-2.62-1.92-5.61-3.48-8.89-4.65c-3.38-1.22-7.09-2.09-11.05-2.6
				c-4.07-0.52-8.46-0.78-13.04-0.78h-39.27V240.9z"/>
		</g>
		<g>
			<polygon class="st0" points="641.52,160.82 686.84,160.82 686.84,252.15 695.8,252.15 695.8,160.82 741.11,160.82 741.11,152.59 
				641.52,152.59 			"/>
			<path class="st0" d="M698.71,255.06h-14.79v-91.32h-45.31v-14.06h105.42v14.06h-45.32V255.06z M689.75,249.23h3.13v-91.32h45.32
				v-2.4h-93.76v2.4h45.31V249.23z"/>
		</g>
		<g>
			<path class="st0" d="M607.62,153.53c-3.66-0.88-7.51-1.56-11.56-2.05c-4.07-0.49-8.5-0.73-13.26-0.73
				c-5.95,0-11.63,0.49-17.05,1.46c-5.42,0.97-10.46,2.42-15.14,4.34c-4.68,1.94-8.92,4.35-12.74,7.22
				c-3.82,2.87-7.1,6.22-9.83,10.04c-2.73,3.82-4.84,8.13-6.32,12.92c-1.46,4.77-2.19,10-2.19,15.7c0,5.72,0.73,10.96,2.19,15.73
				c1.48,4.79,3.59,9.1,6.32,12.92c2.73,3.82,6.01,7.16,9.83,10.04c3.82,2.87,8.07,5.27,12.74,7.19c4.68,1.94,9.73,3.4,15.17,4.38
				c5.44,0.95,11.11,1.42,17.01,1.42c4.77,0,9.19-0.24,13.26-0.73c4.05-0.46,7.91-1.13,11.56-2.01c3.68-0.88,7.22-1.92,10.63-3.13
				c3.4-1.2,6.85-2.52,10.35-3.96v-10.8c-2.57,1.69-5.42,3.29-8.54,4.79c-3.1,1.53-6.5,2.87-10.21,4.03
				c-3.7,1.16-7.66,2.07-11.88,2.74c-4.24,0.69-8.72,1.04-13.44,1.04c-9.58,0-17.87-1.03-24.86-3.09
				c-7.01-2.06-12.8-4.99-17.36-8.79c-4.56-3.77-7.94-8.35-10.14-13.72c-2.2-5.37-3.3-11.39-3.3-18.06c0-6.67,1.1-12.69,3.3-18.06
				c2.2-5.39,5.58-9.99,10.14-13.79c4.56-3.8,10.35-6.72,17.36-8.79c6.99-2.08,15.28-3.13,24.86-3.13c4.72,0,9.17,0.34,13.33,1.01
				c4.14,0.67,8.04,1.59,11.7,2.74c3.63,1.16,7.03,2.51,10.17,4.06s6.1,3.19,8.85,4.93v-10.87c-3.5-1.44-6.94-2.75-10.35-3.96
				C614.85,155.41,611.31,154.39,607.62,153.53z"/>
			<path class="st0" d="M582.8,257.01c-6.05,0-11.94-0.49-17.52-1.47c-5.64-1.01-10.94-2.54-15.79-4.55
				c-4.88-2-9.38-4.55-13.38-7.55c-4.04-3.04-7.56-6.63-10.45-10.67c-2.9-4.05-5.17-8.68-6.73-13.75
				c-1.54-5.03-2.32-10.61-2.32-16.59c0-5.96,0.78-11.53,2.32-16.55c1.57-5.08,3.84-9.71,6.74-13.76
				c2.89-4.04,6.41-7.63,10.45-10.67c3.99-3,8.49-5.55,13.37-7.58c4.86-2,10.16-3.52,15.75-4.52c5.56-1,11.47-1.5,17.56-1.5
				c4.86,0,9.44,0.25,13.61,0.75c4.14,0.5,8.14,1.21,11.89,2.11c3.76,0.88,7.43,1.93,10.91,3.14c3.44,1.22,6.97,2.57,10.5,4.02
				l1.81,0.74v18.11l-4.47-2.82c-2.65-1.67-5.54-3.28-8.59-4.78c-3-1.48-6.29-2.79-9.77-3.9c-3.5-1.11-7.3-2-11.28-2.64
				c-3.99-0.64-8.32-0.97-12.87-0.97c-9.26,0-17.34,1.01-24.03,3c-6.61,1.94-12.1,4.71-16.33,8.23c-4.17,3.47-7.3,7.73-9.3,12.64
				c-2.05,5-3.08,10.7-3.08,16.96s1.04,11.96,3.08,16.95c2,4.9,5.13,9.13,9.3,12.57c4.24,3.53,9.73,6.3,16.32,8.23
				c6.69,1.97,14.78,2.97,24.04,2.97c4.54,0,8.91-0.34,12.96-1c4.07-0.65,7.93-1.54,11.48-2.65c3.54-1.11,6.84-2.41,9.79-3.86
				c3.01-1.45,5.77-3,8.23-4.61l4.52-2.97v18.16l-1.81,0.74c-3.54,1.45-7.06,2.8-10.48,4.01c-3.48,1.23-7.15,2.31-10.92,3.21
				c-3.76,0.9-7.76,1.6-11.91,2.08C592.23,256.75,587.65,257.01,582.8,257.01z M582.8,153.67c-5.75,0-11.31,0.48-16.53,1.41
				c-5.18,0.93-10.08,2.33-14.55,4.17c-4.42,1.84-8.49,4.15-12.1,6.86c-3.57,2.68-6.66,5.84-9.21,9.4
				c-2.54,3.55-4.52,7.61-5.91,12.08c-1.36,4.46-2.06,9.45-2.06,14.83c0,5.4,0.69,10.41,2.06,14.88c1.38,4.46,3.37,8.53,5.9,12.07
				c2.54,3.56,5.64,6.72,9.21,9.4c3.6,2.71,7.67,5,12.1,6.82c4.47,1.86,9.37,3.27,14.58,4.2c5.24,0.91,10.79,1.38,16.5,1.38
				c4.63,0,8.97-0.24,12.92-0.71c3.92-0.45,7.7-1.1,11.22-1.95c3.58-0.85,7.05-1.88,10.34-3.04c2.75-0.97,5.57-2.03,8.4-3.17v-3.67
				c-1.4,0.78-2.85,1.53-4.36,2.26c-3.2,1.58-6.78,2.99-10.61,4.18c-3.82,1.19-7.95,2.15-12.29,2.84c-4.36,0.71-9.04,1.08-13.9,1.08
				c-9.82,0-18.46-1.08-25.69-3.21c-7.37-2.16-13.56-5.3-18.4-9.34c-4.91-4.06-8.6-9.06-10.97-14.85
				c-2.33-5.7-3.52-12.14-3.52-19.16s1.18-13.46,3.52-19.16c2.37-5.81,6.06-10.83,10.97-14.92c4.85-4.03,11.04-7.18,18.41-9.34
				c7.22-2.15,15.86-3.24,25.68-3.24c4.85,0,9.5,0.35,13.8,1.04c4.27,0.69,8.35,1.65,12.12,2.84c3.76,1.2,7.32,2.62,10.58,4.23
				c1.59,0.78,3.15,1.6,4.65,2.43v-3.79c-2.83-1.14-5.65-2.2-8.4-3.17c-3.27-1.13-6.75-2.13-10.31-2.96l-0.02-0.01
				c-3.54-0.85-7.31-1.52-11.23-1.99C591.77,153.91,587.43,153.67,582.8,153.67z"/>
		</g>
		<g>
			<path class="st0" d="M485.21,165.47c-4.84-4.49-10.79-7.94-17.85-10.35c-7.06-2.43-15.1-3.65-24.13-3.65
				c-8.68,0-16.62,1.26-23.82,3.78c-7.2,2.5-13.39,6.02-18.58,10.56c-5.16,4.56-9.18,10-12.05,16.32
				c-2.87,6.32-4.31,13.28-4.31,20.87c0,7.82,1.49,14.87,4.48,21.15c3.01,6.3,7.27,11.66,12.78,16.08
				c5.53,4.42,12.25,7.81,20.14,10.17c7.87,2.36,16.68,3.54,26.42,3.54c4.21,0,8.07-0.13,11.56-0.38c3.5-0.28,6.94-0.69,10.35-1.25
				c3.38-0.56,6.81-1.27,10.28-2.15c3.47-0.9,7.23-1.98,11.29-3.23v-10.52c-1.92,1.2-4.4,2.37-7.43,3.51
				c-3.06,1.13-6.42,2.15-10.1,3.06c-3.66,0.9-7.49,1.62-11.49,2.15c-4.03,0.53-8,0.8-11.91,0.8c-9.17,0-17.2-0.94-24.1-2.81
				c-6.88-1.85-12.66-4.51-17.36-7.99c-4.72-3.5-8.36-7.73-10.9-12.71c-2.57-4.98-4.12-10.56-4.65-16.74h106.15v-2.22
				c0-8.03-1.25-15.24-3.75-21.63C493.69,175.42,490.02,169.97,485.21,165.47z M393.81,197.8c0.62-5.12,2.1-9.99,4.41-14.62
				c2.31-4.61,5.51-8.66,9.58-12.15c4.05-3.52,9-6.31,14.86-8.37c5.83-2.08,12.64-3.13,20.42-3.13c8.26,0,15.36,1.04,21.29,3.13
				c5.9,2.06,10.78,4.86,14.62,8.4c3.84,3.52,6.72,7.58,8.65,12.19c1.94,4.63,3.09,9.48,3.44,14.55H393.81z"/>
			<path class="st0" d="M448.29,256.87c-9.98,0-19.16-1.23-27.26-3.66c-8.22-2.46-15.32-6.06-21.12-10.69
				c-5.83-4.68-10.4-10.43-13.59-17.1c-3.16-6.64-4.76-14.18-4.76-22.4c0-7.98,1.54-15.4,4.57-22.07
				c3.03-6.67,7.33-12.49,12.77-17.3c5.45-4.77,12.03-8.51,19.55-11.13c7.47-2.62,15.81-3.95,24.78-3.95
				c9.31,0,17.75,1.28,25.08,3.81c7.41,2.53,13.76,6.22,18.88,10.97l0.01,0c5.11,4.77,9.06,10.63,11.73,17.42
				c2.62,6.71,3.95,14.34,3.95,22.7v5.14H397.1c0.69,4.54,2.02,8.73,3.96,12.48c2.33,4.56,5.71,8.5,10.05,11.7
				c4.38,3.24,9.89,5.76,16.39,7.51c6.62,1.8,14.48,2.71,23.34,2.71c3.77,0,7.64-0.26,11.53-0.77c3.88-0.52,7.64-1.22,11.18-2.09
				c3.57-0.87,6.86-1.87,9.79-2.96c2.83-1.06,5.15-2.15,6.9-3.24l4.46-2.8v17.94l-2.06,0.63c-4.07,1.26-7.91,2.35-11.41,3.26
				c-3.55,0.9-7.09,1.64-10.54,2.21c-3.47,0.57-7.04,1-10.59,1.28C456.53,256.74,452.57,256.87,448.29,256.87z M443.23,154.4
				c-8.31,0-16,1.22-22.86,3.62c-6.82,2.37-12.74,5.73-17.62,10c-4.82,4.26-8.63,9.42-11.31,15.33c-2.68,5.91-4.04,12.52-4.04,19.66
				c0,7.35,1.41,14.04,4.2,19.89c2.8,5.86,6.83,10.93,11.97,15.06c5.21,4.16,11.65,7.41,19.15,9.65c7.56,2.27,16.17,3.42,25.59,3.42
				c4.13,0,7.95-0.13,11.35-0.37c3.38-0.27,6.78-0.68,10.09-1.22c3.28-0.54,6.66-1.25,10.03-2.1c2.81-0.73,5.86-1.59,9.09-2.56
				v-3.55c-1.08,0.49-2.25,0.96-3.49,1.43c-3.15,1.17-6.65,2.23-10.43,3.16c-3.73,0.92-7.71,1.67-11.8,2.21
				c-4.14,0.55-8.27,0.82-12.29,0.82c-9.38,0-17.75-0.98-24.86-2.92c-7.19-1.94-13.36-4.78-18.33-8.45
				c-5.07-3.75-9.03-8.37-11.77-13.73c-2.73-5.28-4.4-11.28-4.96-17.81l-0.27-3.17h106.41c-0.07-7.36-1.26-14.04-3.55-19.88
				c-2.35-5.97-5.81-11.11-10.28-15.28l0,0c-4.51-4.19-10.17-7.46-16.8-9.73C459.69,155.57,451.89,154.4,443.23,154.4z
				 M494.2,200.72H390.52l0.4-3.27c0.66-5.43,2.24-10.66,4.7-15.57c2.48-4.94,5.94-9.33,10.29-13.06c4.3-3.73,9.62-6.73,15.79-8.91
				c6.11-2.18,13.31-3.29,21.38-3.29c8.56,0,16.05,1.11,22.25,3.29c6.25,2.18,11.51,5.21,15.63,9.01c4.13,3.78,7.28,8.23,9.36,13.21
				c2.06,4.9,3.29,10.11,3.65,15.47L494.2,200.72z M397.24,194.89h90.6c-0.51-3.62-1.48-7.15-2.89-10.5
				c-1.75-4.2-4.42-7.95-7.93-11.17c-3.54-3.26-8.11-5.88-13.61-7.8c-5.59-1.97-12.43-2.96-20.32-2.96
				c-7.41,0-13.95,0.99-19.44,2.96c-5.49,1.93-10.18,4.56-13.93,7.82c-3.77,3.24-6.76,7.02-8.89,11.26
				C399.17,187.8,397.97,191.29,397.24,194.89z"/>
		</g>
		<g>
			<path class="st0" d="M215.48,163.11c-5.16-3.84-11.24-6.56-18.23-8.16c-7.01-1.57-14.6-2.36-22.74-2.36h-51.25v99.55h51.39
				c5.46,0,10.66-0.35,15.59-1.04c4.95-0.72,9.55-1.84,13.79-3.37c4.24-1.55,8.08-3.61,11.53-6.18c3.45-2.55,6.38-5.66,8.79-9.34
				c2.43-3.68,4.31-7.99,5.63-12.92c1.32-4.95,1.98-10.63,1.98-17.01c0-9.51-1.46-17.45-4.38-23.82
				C224.65,172.07,220.62,166.96,215.48,163.11z M219.06,222.46c-2.36,5.35-5.66,9.61-9.9,12.78c-4.21,3.15-9.27,5.37-15.17,6.67
				c-5.9,1.27-12.4,1.91-19.48,1.91h-42.19v-82.99h42.19c4.72,0,9.19,0.27,13.4,0.8c4.19,0.53,8.08,1.45,11.67,2.74
				c3.57,1.27,6.77,2.95,9.62,5.04c2.85,2.06,5.27,4.63,7.26,7.71c1.97,3.08,3.48,6.69,4.55,10.83c1.06,4.14,1.6,8.92,1.6,14.34
				C222.6,210.41,221.42,217.13,219.06,222.46z"/>
			<path class="st0" d="M174.65,255.06h-54.31V149.68h54.17c8.32,0,16.19,0.82,23.38,2.43c7.37,1.68,13.87,4.6,19.33,8.67l0,0
				c5.51,4.12,9.88,9.66,12.99,16.47c3.08,6.72,4.64,15.14,4.64,25.03c0,6.61-0.7,12.59-2.08,17.76c-1.4,5.22-3.42,9.85-6.01,13.77
				c-2.58,3.94-5.77,7.34-9.49,10.08c-3.65,2.72-7.78,4.93-12.26,6.57c-4.42,1.59-9.24,2.77-14.37,3.52
				C185.6,254.7,180.22,255.06,174.65,255.06z M126.17,249.23h48.47c5.3,0,10.41-0.34,15.18-1.01c4.73-0.68,9.17-1.77,13.2-3.22
				c3.94-1.44,7.57-3.39,10.78-5.78c3.16-2.33,5.88-5.23,8.09-8.6c2.25-3.41,4.02-7.47,5.25-12.07c1.25-4.68,1.88-10.15,1.88-16.26
				c0-9.05-1.38-16.65-4.11-22.61c-2.7-5.91-6.46-10.69-11.17-14.22l0,0c-4.81-3.58-10.58-6.16-17.14-7.66
				c-6.76-1.52-14.2-2.29-22.1-2.29h-48.34V249.23z M174.51,246.73h-45.1v-88.82h45.1c4.82,0,9.46,0.28,13.77,0.82
				c4.39,0.56,8.52,1.53,12.29,2.89c3.8,1.36,7.29,3.18,10.35,5.42c3.12,2.25,5.81,5.11,7.98,8.48c2.13,3.34,3.79,7.27,4.92,11.69
				c1.12,4.36,1.69,9.43,1.69,15.07c0,8.5-1.28,15.68-3.79,21.36c-2.55,5.78-6.19,10.47-10.82,13.93c-4.53,3.39-10.01,5.8-16.3,7.18
				C188.53,246.06,181.77,246.73,174.51,246.73z M135.23,240.9h39.27c6.85,0,13.19-0.62,18.86-1.85c5.46-1.2,10.18-3.27,14.04-6.15
				c3.81-2.85,6.83-6.76,8.97-11.62l0,0c2.18-4.92,3.29-11.31,3.29-18.99c0-5.15-0.51-9.73-1.51-13.62
				c-0.98-3.82-2.39-7.18-4.18-9.99c-1.78-2.75-3.97-5.08-6.51-6.92c-2.62-1.92-5.61-3.48-8.89-4.65c-3.38-1.22-7.09-2.09-11.05-2.6
				c-4.07-0.52-8.46-0.78-13.04-0.78h-39.27V240.9z"/>
		</g>
		<g>
			<rect x="258.31" y="152.59" class="st0" width="9.06" height="99.55"/>
			<path class="st0" d="M270.29,255.06h-14.9V149.68h14.9V255.06z M261.23,249.23h3.23v-93.72h-3.23V249.23z"/>
		</g>
		<g>
			<path class="st0" d="M368.35,150.44c-1.13-0.12-2.38-0.21-3.75-0.28c-1.34-0.07-2.86-0.1-4.55-0.1c-4.93,0-9.7,0.57-14.31,1.7
				c-4.61,1.13-9.02,2.7-13.23,4.69c-4.21,2.01-8.21,4.42-11.98,7.22c-3.8,2.8-7.32,5.87-10.56,9.2v-20.28h-9.06v99.55h9.06v-69.13
				c2.8-3.38,5.94-6.57,9.41-9.58c3.47-3.03,7.26-5.68,11.35-7.95c4.07-2.27,8.5-4.06,13.26-5.38c4.75-1.34,9.83-2.01,15.24-2.01
				c3.91,0,7.12,0.25,9.62,0.76c2.48,0.51,4.42,0.98,5.83,1.42v-8.92c-1.07-0.19-2.11-0.36-3.13-0.52
				C370.56,150.68,369.49,150.56,368.35,150.44z"/>
			<path class="st0" d="M312.9,255.06H298V149.68h14.9v16.41c1.9-1.67,3.87-3.26,5.91-4.76c3.89-2.89,8.08-5.42,12.45-7.51
				c4.39-2.07,9.02-3.71,13.79-4.89c4.81-1.19,9.86-1.79,15-1.79c1.75,0,3.31,0.04,4.7,0.11c1.42,0.07,2.71,0.17,3.89,0.29
				c1.17,0.12,2.28,0.25,3.33,0.39c1.1,0.17,2.15,0.35,3.23,0.54l2.42,0.42v15.34l-3.78-1.18c-1.32-0.41-3.19-0.87-5.55-1.35
				c-2.29-0.47-5.33-0.7-9.03-0.7c-5.12,0-9.98,0.64-14.45,1.9c-4.54,1.26-8.78,2.98-12.64,5.12c-3.9,2.16-7.55,4.72-10.85,7.6
				c-3.07,2.66-5.89,5.5-8.41,8.45V255.06z M303.83,249.23h3.23v-67.27l0.67-0.81c2.89-3.48,6.16-6.82,9.75-9.93
				c3.6-3.15,7.6-5.94,11.85-8.3c4.25-2.37,8.93-4.27,13.9-5.64c4.97-1.41,10.36-2.12,16.02-2.12c4.15,0,7.48,0.27,10.2,0.82
				c0.83,0.17,1.61,0.34,2.33,0.51v-2.68c-0.22-0.04-0.45-0.07-0.67-0.11c-0.92-0.12-1.96-0.25-3.07-0.36
				c-1.09-0.11-2.29-0.2-3.6-0.27c-1.3-0.07-2.77-0.1-4.4-0.1c-4.67,0-9.25,0.54-13.61,1.62c-4.39,1.08-8.66,2.59-12.68,4.49
				c-4.02,1.92-7.89,4.25-11.49,6.93c-3.65,2.7-7.08,5.69-10.2,8.89l-5.01,5.15v-24.54h-3.23V249.23z"/>
		</g>
	</g>
	<g>
		<g>
			<polygon class="st0" points="585.2,640.94 616.55,631.64 635.3,694.83 641.5,692.99 622.75,629.8 654.11,620.5 652.42,614.8 
				583.51,635.25 			"/>
			<path class="st0" d="M633.34,698.46l-18.75-63.19l-31.36,9.3l-3.35-11.29l74.5-22.1l3.35,11.29l-31.36,9.3l18.75,63.19
				L633.34,698.46z M618.52,628.02l18.75,63.19l0.61-0.18l-18.75-63.19l31.36-9.3l-0.03-0.1l-63.32,18.79l0.03,0.1L618.52,628.02z"
				/>
		</g>
		<g>
			<path class="st0" d="M554.28,639.23c-2.71-0.09-5.54-0.02-8.47,0.22c-2.95,0.24-6.11,0.71-9.49,1.4
				c-4.21,0.86-8.16,2.02-11.85,3.49c-3.69,1.47-7.05,3.22-10.08,5.25c-3.03,2.05-5.68,4.36-7.97,6.95
				c-2.29,2.58-4.12,5.42-5.5,8.51c-1.38,3.1-2.25,6.44-2.61,10.05c-0.34,3.58-0.1,7.39,0.72,11.41c0.82,4.04,2.1,7.65,3.82,10.81
				c1.74,3.18,3.85,5.92,6.33,8.22c2.48,2.31,5.28,4.2,8.4,5.68c3.12,1.48,6.46,2.56,10.05,3.25c3.59,0.7,7.37,1,11.36,0.91
				c3.98-0.11,8.06-0.6,12.24-1.45c3.37-0.69,6.46-1.5,9.28-2.43c2.8-0.91,5.43-1.94,7.89-3.09c2.48-1.15,4.83-2.4,7.06-3.74
				c2.23-1.34,4.48-2.77,6.75-4.29l-1.56-7.64c-1.57,1.57-3.36,3.11-5.35,4.62c-1.97,1.53-4.19,2.97-6.64,4.32
				c-2.45,1.35-5.12,2.57-8,3.65c-2.9,1.1-6.01,1.99-9.35,2.67c-6.78,1.38-12.79,1.85-18.03,1.4c-5.26-0.45-9.77-1.68-13.55-3.71
				c-3.77-2.01-6.82-4.76-9.15-8.24c-2.33-3.48-3.98-7.58-4.94-12.29c-0.96-4.71-1.05-9.13-0.27-13.24
				c0.78-4.13,2.5-7.87,5.18-11.21c2.68-3.34,6.35-6.25,11.01-8.72c4.64-2.48,10.35-4.41,17.13-5.8c3.34-0.68,6.53-1.08,9.57-1.21
				c3.03-0.12,5.92-0.04,8.67,0.25c2.74,0.29,5.33,0.76,7.78,1.41c2.45,0.64,4.77,1.38,6.97,2.21l-1.57-7.69
				c-2.68-0.51-5.31-0.95-7.89-1.31C559.66,639.51,557.01,639.31,554.28,639.23z"/>
			<path class="st0" d="M537.57,718.31c-3.65,0-7.18-0.33-10.5-0.98c-3.8-0.73-7.42-1.9-10.74-3.47c-3.37-1.6-6.45-3.68-9.13-6.18
				c-2.7-2.51-5.02-5.53-6.9-8.96c-1.86-3.41-3.24-7.32-4.12-11.63c-0.87-4.29-1.13-8.42-0.76-12.28c0.39-3.9,1.34-7.59,2.85-10.96
				c1.49-3.35,3.5-6.46,5.98-9.26c2.43-2.75,5.3-5.25,8.52-7.43c3.2-2.15,6.77-4.01,10.64-5.55c3.84-1.52,7.99-2.75,12.34-3.64
				c3.47-0.71,6.78-1.19,9.83-1.45c3.04-0.25,6-0.33,8.8-0.23c2.8,0.08,5.57,0.3,8.25,0.65c2.64,0.37,5.34,0.82,8.05,1.33l1.92,0.37
				l3.01,14.78l-4.94-1.87c-2.1-0.79-4.35-1.51-6.68-2.12c-2.3-0.6-4.77-1.05-7.35-1.33c-2.59-0.27-5.37-0.35-8.24-0.24
				c-2.87,0.12-5.94,0.51-9.11,1.15c-6.47,1.32-11.97,3.17-16.34,5.51c-4.3,2.28-7.69,4.95-10.11,7.97
				c-2.36,2.95-3.91,6.29-4.59,9.93c-0.71,3.73-0.62,7.8,0.26,12.12c0.88,4.32,2.39,8.11,4.5,11.26c2.05,3.06,4.78,5.51,8.1,7.29
				c3.41,1.83,7.59,2.97,12.42,3.38c4.94,0.43,10.73-0.03,17.2-1.35c3.17-0.65,6.16-1.5,8.9-2.54c2.75-1.03,5.31-2.2,7.63-3.48
				c2.31-1.28,4.42-2.65,6.26-4.07c1.91-1.45,3.61-2.92,5.08-4.38l3.83-3.82l3.03,14.85l-1.62,1.09c-2.3,1.54-4.61,3.01-6.87,4.37
				c-2.3,1.38-4.77,2.69-7.33,3.89c-2.56,1.2-5.32,2.28-8.22,3.22c-2.88,0.96-6.12,1.8-9.59,2.51c-4.32,0.88-8.6,1.39-12.74,1.5
				C538.57,718.3,538.07,718.31,537.57,718.31z M546.61,711.78c-2.8,0.4-5.48,0.63-8.01,0.69c0.1,0,0.21,0,0.31-0.01
				C541.42,712.39,544,712.16,546.61,711.78z M508.7,658.37c-0.03,0.03-0.06,0.07-0.09,0.1c-2.08,2.35-3.77,4.96-5.02,7.77
				c-1.25,2.8-2.05,5.87-2.37,9.14c-0.31,3.27-0.09,6.82,0.67,10.55c0.76,3.74,1.95,7.1,3.52,10c1.57,2.88,3.51,5.39,5.76,7.48
				c2.25,2.09,4.83,3.84,7.66,5.18c0.84,0.4,1.71,0.77,2.6,1.11c-1.07-0.43-2.1-0.91-3.09-1.44c-4.17-2.23-7.6-5.32-10.19-9.18
				c-2.53-3.78-4.34-8.27-5.37-13.33c-1.03-5.06-1.13-9.9-0.28-14.37c0.86-4.58,2.8-8.79,5.77-12.49
				C508.41,658.71,508.55,658.54,508.7,658.37z M578.8,698.3c-0.57,0.46-1.15,0.92-1.75,1.38c-2.06,1.59-4.42,3.13-6.99,4.55
				c-1.73,0.96-3.58,1.85-5.52,2.68c0.9-0.37,1.77-0.75,2.62-1.15c2.38-1.11,4.67-2.32,6.8-3.6c1.65-0.99,3.32-2.04,5-3.14
				L578.8,698.3z M555.88,642.21c0.46,0.04,0.91,0.08,1.36,0.13c2.88,0.31,5.64,0.81,8.22,1.49c0.8,0.21,1.59,0.43,2.36,0.66
				l-0.17-0.81c-1.97-0.35-3.92-0.66-5.83-0.93C559.91,642.49,557.91,642.31,555.88,642.21z"/>
		</g>
		<g>
			<path class="st0" d="M297.48,637.37c-1.83-2.64-4.36-4.94-7.59-6.92c-3.24-1.98-7.21-3.53-11.92-4.66
				c-4.18-1-8.25-1.51-12.23-1.54c-3.96-0.02-7.77,0.26-11.41,0.85c-3.63,0.57-7.07,1.34-10.34,2.29c-3.26,0.97-6.25,1.92-8.98,2.85
				l2.94-12.26l-6.36-1.52l-16.74,69.87l6.36,1.52l12.05-50.3c2.36-1.19,5.18-2.34,8.46-3.46c3.29-1.1,6.8-1.99,10.53-2.66
				c3.75-0.66,7.65-1.02,11.7-1.06c4.05-0.06,8.06,0.38,12.02,1.33c3.41,0.82,6.43,1.85,9.05,3.1c2.61,1.23,4.69,2.8,6.24,4.72
				c1.57,1.91,2.58,4.23,3.02,6.99c0.44,2.74,0.2,6.04-0.72,9.9l-11.05,46.14l6.36,1.52l11.38-47.5c0.88-3.67,1.1-7.12,0.65-10.36
				C300.43,642.95,299.3,640.01,297.48,637.37z"/>
			<path class="st0" d="M291,707.58l-12.03-2.88l11.73-48.97c0.83-3.47,1.06-6.42,0.68-8.76c-0.36-2.26-1.14-4.08-2.39-5.6
				c-1.28-1.58-3.03-2.9-5.23-3.93c-2.44-1.16-5.29-2.13-8.49-2.9c-3.71-0.89-7.49-1.31-11.3-1.26c-3.88,0.04-7.65,0.38-11.23,1.02
				c-3.57,0.64-6.98,1.5-10.12,2.55c-2.58,0.88-4.88,1.8-6.87,2.72l-12.41,51.8l-12.03-2.88l18.1-75.54l12.03,2.88l-2.4,10.03
				c1.32-0.41,2.68-0.83,4.1-1.25c3.39-0.99,6.99-1.78,10.72-2.38c3.78-0.61,7.74-0.93,11.89-0.88c4.19,0.03,8.53,0.57,12.9,1.62
				c4.99,1.2,9.28,2.88,12.76,5.01c3.57,2.18,6.42,4.79,8.47,7.75c2.08,3.01,3.39,6.4,3.89,10.1c0.49,3.57,0.26,7.42-0.7,11.43
				L291,707.58z M286,700.38l0.69,0.17l10.7-44.66c0.79-3.3,0.99-6.42,0.6-9.28c-0.38-2.82-1.33-5.29-2.91-7.57
				c-1.58-2.29-3.84-4.34-6.72-6.1c-2.96-1.81-6.69-3.26-11.08-4.31c-3.94-0.94-7.83-1.44-11.57-1.46
				c-3.83-0.03-7.46,0.25-10.93,0.81c-1.9,0.3-3.75,0.66-5.55,1.07c0.82-0.17,1.65-0.33,2.49-0.49c3.9-0.69,7.99-1.06,12.18-1.11
				c4.27-0.05,8.55,0.41,12.74,1.42c3.59,0.86,6.83,1.97,9.62,3.3c2.99,1.4,5.43,3.26,7.26,5.51c1.88,2.28,3.11,5.1,3.63,8.36
				c0.5,3.1,0.25,6.82-0.77,11.04L286,700.38z M218.34,684.17l0.69,0.17l11.69-48.79l1.21-0.61c1.83-0.92,3.93-1.82,6.27-2.7
				c-0.77,0.25-1.53,0.51-2.27,0.75l-5.01,1.7l3.49-14.56l-0.69-0.17L218.34,684.17z"/>
		</g>
		<g>
			<path class="st0" d="M809.97,539.33l4.44,4.21l20.12-21.22l15.82,15c-0.64,1.28-1.49,2.77-2.54,4.46
				c-1.05,1.69-2.27,3.51-3.65,5.45c-1.39,1.95-2.93,3.97-4.63,6.04c-1.68,2.09-3.45,4.12-5.32,6.08
				c-4.78,5.04-9.52,8.9-14.21,11.56c-4.69,2.67-9.23,4.28-13.61,4.85c-4.39,0.58-8.57,0.15-12.53-1.28
				c-3.95-1.42-7.59-3.7-10.91-6.85c-3.54-3.36-6.14-7-7.79-10.94c-1.63-3.94-2.25-8.09-1.86-12.47c0.4-4.38,1.86-8.96,4.39-13.73
				c2.51-4.78,6.16-9.7,10.95-14.76c2.36-2.49,4.73-4.64,7.13-6.47c2.4-1.82,4.8-3.4,7.2-4.71c2.39-1.3,4.76-2.39,7.13-3.26
				c2.36-0.87,4.68-1.59,6.96-2.17l-5.77-5.47c-2.5,1.11-4.91,2.26-7.23,3.47c-2.32,1.21-4.6,2.56-6.84,4.05
				c-2.24,1.47-4.47,3.12-6.68,4.96c-2.21,1.84-4.46,3.97-6.74,6.38c-3.02,3.19-5.68,6.49-7.96,9.89
				c-2.28,3.41-4.14,6.84-5.58,10.29c-1.44,3.47-2.4,6.95-2.88,10.46c-0.5,3.51-0.44,6.96,0.17,10.35c0.61,3.39,1.79,6.67,3.54,9.85
				c1.75,3.2,4.16,6.25,7.21,9.15c4.58,4.35,9.4,7.25,14.45,8.73c5.04,1.46,10.13,1.72,15.28,0.78c5.16-0.95,10.28-3,15.37-6.15
				c5.08-3.17,9.95-7.21,14.6-12.12c2.28-2.4,4.36-4.77,6.26-7.12c1.9-2.37,3.64-4.73,5.24-7.09s3.04-4.73,4.33-7.12
				c1.31-2.4,2.52-4.84,3.63-7.33l-22.92-21.73L809.97,539.33z"/>
			<path class="st0" d="M802.05,585.49c-3.39,0-6.76-0.48-10.08-1.45c-5.48-1.6-10.74-4.76-15.65-9.41
				c-3.26-3.09-5.87-6.41-7.76-9.87c-1.89-3.43-3.19-7.05-3.85-10.73c-0.66-3.67-0.73-7.47-0.19-11.27c0.5-3.73,1.54-7.5,3.07-11.18
				c1.5-3.61,3.47-7.24,5.84-10.79c2.37-3.53,5.15-6.98,8.27-10.27c2.35-2.48,4.71-4.71,6.99-6.62c2.3-1.92,4.63-3.65,6.95-5.17
				c2.29-1.52,4.68-2.94,7.09-4.19c2.36-1.23,4.85-2.42,7.4-3.55l1.78-0.79l11.01,10.44l-5.12,1.3c-2.18,0.56-4.42,1.26-6.68,2.08
				c-2.21,0.81-4.48,1.85-6.73,3.08c-2.26,1.24-4.56,2.75-6.83,4.47c-2.26,1.72-4.54,3.79-6.78,6.15
				c-4.59,4.84-8.11,9.58-10.49,14.11c-2.33,4.41-3.7,8.67-4.06,12.64c-0.35,3.87,0.21,7.6,1.65,11.08c1.48,3.53,3.87,6.88,7.1,9.94
				c3.01,2.86,6.34,4.95,9.89,6.23c3.51,1.27,7.26,1.64,11.17,1.13c3.99-0.52,8.21-2.03,12.55-4.49c4.42-2.51,8.97-6.23,13.53-11.04
				c1.79-1.89,3.53-3.88,5.16-5.9c1.66-2.03,3.18-4.02,4.52-5.91c1.34-1.88,2.53-3.66,3.55-5.3c0.52-0.83,0.98-1.61,1.4-2.34
				l-12.09-11.46l-20.12,21.22l-8.67-8.22l28.62-30.18L861,534.4l-0.84,1.89c-1.14,2.54-2.39,5.08-3.73,7.53
				c-1.33,2.46-2.84,4.93-4.47,7.35c-1.64,2.43-3.45,4.88-5.38,7.28c-1.95,2.4-4.1,4.85-6.42,7.3c-4.8,5.06-9.91,9.3-15.17,12.59
				c-5.38,3.33-10.89,5.53-16.38,6.55C806.41,585.3,804.22,585.49,802.05,585.49z M772.27,535.64c-0.96,2.63-1.62,5.29-1.97,7.93
				c-0.45,3.21-0.4,6.38,0.15,9.44c0.55,3.06,1.64,6.08,3.23,8.96c1.6,2.93,3.84,5.77,6.66,8.44c4.22,4,8.68,6.71,13.26,8.04
				c4.57,1.32,9.27,1.57,13.94,0.71c4.77-0.88,9.6-2.82,14.35-5.76c2.93-1.83,5.82-3.99,8.63-6.45c-3.03,2.62-6.06,4.8-9.06,6.5
				c-5,2.84-9.94,4.59-14.68,5.21c-4.83,0.63-9.51,0.16-13.9-1.43c-4.31-1.55-8.32-4.06-11.92-7.48c-3.82-3.62-6.67-7.63-8.47-11.93
				c-1.81-4.37-2.51-9.03-2.07-13.85C770.67,541.25,771.29,538.47,772.27,535.64z M814.1,539.22l0.21,0.2l20.12-21.22l19.24,18.24
				c0.1-0.22,0.21-0.43,0.31-0.65l-19.28-18.28L814.1,539.22z M810.73,497.12c-1.82,0.84-3.59,1.71-5.3,2.6
				c-2.15,1.12-4.29,2.38-6.37,3.75c0.84-0.52,1.68-1.01,2.52-1.47c2.51-1.37,5.05-2.53,7.53-3.44c0.76-0.28,1.53-0.55,2.29-0.8
				L810.73,497.12z"/>
		</g>
		<g>
			
				<rect x="679.45" y="601.62" transform="matrix(0.8947 -0.4466 0.4466 0.8947 -212.8617 372.0233)" class="st0" width="6.54" height="71.85"/>
			<path class="st0" d="M694.53,675.06l-34.69-69.51l11.07-5.53l34.69,69.51L694.53,675.06z M667.66,608.17l29.49,59.07l0.63-0.32
				l-29.48-59.07L667.66,608.17z"/>
		</g>
		<g>
			<path class="st0" d="M740.08,557.11c-3.19-0.3-6.59,0.16-10.18,1.37c-3.6,1.21-7.34,3.25-11.23,6.14
				c-3.45,2.56-6.46,5.35-9.04,8.38c-2.56,3.02-4.79,6.12-6.69,9.29c-1.89,3.15-3.52,6.28-4.89,9.39c-1.35,3.12-2.55,6.02-3.59,8.71
				l-7.5-10.13l-5.26,3.89l42.77,57.74l5.26-3.89l-30.79-41.57c0.61-2.57,1.54-5.47,2.78-8.71c1.27-3.23,2.85-6.49,4.74-9.78
				c1.9-3.3,4.14-6.51,6.7-9.64c2.56-3.14,5.48-5.93,8.75-8.35c2.82-2.09,5.55-3.74,8.19-4.94c2.62-1.21,5.16-1.79,7.62-1.75
				c2.47,0.02,4.9,0.75,7.29,2.18c2.38,1.42,4.75,3.72,7.12,6.92l28.24,38.12l5.26-3.89l-29.07-39.25
				c-2.25-3.03-4.75-5.42-7.52-7.16C746.25,558.43,743.27,557.41,740.08,557.11z"/>
			<path class="st0" d="M723.84,655.97l-46.24-62.43l9.94-7.36l6.14,8.29c0.53-1.27,1.09-2.59,1.67-3.95
				c1.43-3.24,3.13-6.51,5.07-9.74c1.96-3.29,4.31-6.54,6.96-9.67c2.71-3.19,5.91-6.16,9.53-8.84c4.12-3.05,8.17-5.26,12.04-6.56
				c3.97-1.33,7.8-1.84,11.38-1.51l0,0c3.64,0.34,7.08,1.52,10.24,3.51c3.05,1.92,5.85,4.57,8.3,7.89l30.81,41.6l-9.94,7.36
				l-29.97-40.47c-2.12-2.87-4.23-4.94-6.27-6.15c-1.96-1.18-3.86-1.75-5.82-1.77c-2.03-0.06-4.17,0.46-6.37,1.48
				c-2.45,1.12-5.03,2.68-7.68,4.64c-3.07,2.27-5.84,4.91-8.23,7.85c-2.46,3-4.63,6.11-6.44,9.26c-1.8,3.14-3.33,6.3-4.55,9.39
				c-0.98,2.54-1.76,4.89-2.33,7.01l31.7,42.8L723.84,655.97z M685.76,594.76l39.29,53.05l0.57-0.42l-29.86-40.31l0.31-1.32
				c0.47-1.99,1.13-4.18,1.96-6.53c-0.3,0.75-0.6,1.49-0.88,2.22l-1.91,4.93l-8.91-12.03L685.76,594.76z M737.45,560.34
				c0.1,0,0.21,0,0.31,0c2.96,0.03,5.91,0.9,8.74,2.59c2.7,1.6,5.38,4.19,7.97,7.69l26.5,35.78l0.57-0.42l-27.34-36.91
				c-2.02-2.73-4.28-4.89-6.72-6.42c-2.37-1.5-4.95-2.38-7.67-2.64l0,0c-2.77-0.25-5.79,0.16-8.99,1.23
				c-3.29,1.11-6.8,3.03-10.43,5.72c-3.26,2.41-6.14,5.08-8.56,7.93c-2.45,2.88-4.6,5.88-6.41,8.89c-0.99,1.65-1.91,3.3-2.76,4.95
				c0.4-0.74,0.81-1.49,1.24-2.23c1.97-3.43,4.32-6.81,6.98-10.04c2.69-3.3,5.81-6.28,9.27-8.85c2.97-2.2,5.9-3.97,8.71-5.25
				C731.76,561.02,734.65,560.34,737.45,560.34z"/>
		</g>
		<g>
			<path class="st0" d="M473.01,653.69c-3.58-3.15-7.94-5.52-13.08-7.12c-5.14-1.62-10.97-2.34-17.48-2.17
				c-6.26,0.17-11.97,1.23-17.11,3.19c-5.15,1.94-9.55,4.6-13.2,7.97c-3.64,3.39-6.43,7.39-8.38,12.01
				c-1.95,4.61-2.85,9.66-2.71,15.14c0.15,5.65,1.36,10.7,3.64,15.17c2.29,4.49,5.47,8.27,9.53,11.35c4.08,3.08,8.99,5.4,14.73,6.95
				c5.72,1.55,12.1,2.23,19.13,2.05c3.04-0.08,5.82-0.25,8.34-0.5c2.52-0.27,5-0.63,7.44-1.1c2.43-0.47,4.89-1.05,7.37-1.75
				c2.49-0.72,5.18-1.57,8.08-2.55l-0.2-7.59c-1.36,0.91-3.13,1.8-5.29,2.67c-2.18,0.88-4.59,1.68-7.23,2.4
				c-2.62,0.72-5.37,1.31-8.25,1.77c-2.9,0.46-5.76,0.73-8.58,0.81c-6.61,0.18-12.43-0.35-17.44-1.57c-5-1.2-9.22-3.01-12.68-5.43
				c-3.47-2.43-6.18-5.42-8.11-8.96c-1.95-3.54-3.18-7.54-3.68-11.99l76.59-2.04l-0.04-1.6c-0.15-5.8-1.2-10.97-3.12-15.54
				C479.32,660.71,476.57,656.84,473.01,653.69z M407.69,678.78c0.35-3.7,1.32-7.25,2.9-10.63c1.58-3.37,3.81-6.35,6.68-8.95
				c2.86-2.62,6.38-4.72,10.56-6.32c4.17-1.62,9.06-2.5,14.67-2.65c5.96-0.16,11.1,0.46,15.42,1.85c4.3,1.37,7.87,3.3,10.71,5.78
				c2.84,2.46,5,5.34,6.47,8.63c1.49,3.3,2.41,6.78,2.76,10.43L407.69,678.78z"/>
			<path class="st0" d="M445.87,721.19c-6.41,0-12.35-0.73-17.69-2.18c-6.08-1.64-11.37-4.15-15.72-7.44
				c-4.4-3.34-7.88-7.49-10.37-12.35c-2.46-4.84-3.8-10.36-3.96-16.42c-0.16-5.87,0.83-11.37,2.93-16.35c2.1-4.97,5.16-9.35,9.08-13
				c3.92-3.62,8.68-6.5,14.16-8.57c5.43-2.06,11.51-3.2,18.07-3.37c6.8-0.18,13.01,0.59,18.43,2.3c5.5,1.71,10.25,4.31,14.13,7.72
				l0.01,0.01c3.87,3.42,6.9,7.67,9.01,12.63c2.06,4.88,3.19,10.47,3.35,16.6l0.12,4.52l-76.17,2.03c0.59,2.82,1.54,5.41,2.83,7.75
				c1.71,3.14,4.14,5.82,7.23,7.98c3.14,2.19,7.07,3.87,11.69,4.98c4.74,1.15,10.35,1.66,16.68,1.49c2.68-0.07,5.44-0.33,8.2-0.77
				c2.76-0.44,5.43-1.02,7.93-1.71c2.52-0.69,4.85-1.46,6.92-2.29c1.97-0.8,3.58-1.6,4.77-2.4l4.39-2.92l0.4,15.01l-2.04,0.69
				c-2.94,1-5.68,1.86-8.21,2.59c-2.56,0.72-5.12,1.33-7.63,1.81c-2.52,0.48-5.11,0.86-7.68,1.14c-2.6,0.26-5.48,0.43-8.57,0.51
				C447.39,721.18,446.63,721.19,445.87,721.19z M425.61,650.62c-4.45,1.78-8.31,4.16-11.49,7.09c-3.31,3.08-5.89,6.79-7.67,11
				c-1.78,4.21-2.61,8.89-2.48,13.93c0.14,5.18,1.26,9.87,3.32,13.92c2.08,4.07,5.01,7.55,8.69,10.36
				c3.75,2.84,8.37,5.01,13.72,6.46c5.06,1.37,10.75,2.05,16.95,1.97c-5.57-0.04-10.62-0.61-15.03-1.68
				c-5.32-1.28-9.92-3.26-13.66-5.87c-3.83-2.68-6.86-6.03-9-9.95c-2.12-3.85-3.47-8.25-4.02-13.05l-0.34-3.02l-0.13,0l0.31-3.28
				c0.38-4.02,1.45-7.92,3.16-11.59c1.74-3.71,4.22-7.03,7.37-9.88C418.14,654.44,421.6,652.28,425.61,650.62z M476.32,709.53
				c-0.45,0.2-0.92,0.4-1.41,0.6c-2.29,0.92-4.83,1.76-7.56,2.51c-2.7,0.74-5.58,1.36-8.56,1.84c-0.66,0.11-1.31,0.2-1.97,0.29
				c2.17-0.25,4.36-0.58,6.49-0.99c2.34-0.45,4.74-1.02,7.13-1.69c1.84-0.53,3.81-1.14,5.9-1.83L476.32,709.53z M457.86,649
				c0.32,0.09,0.64,0.19,0.96,0.29c4.65,1.48,8.6,3.63,11.73,6.36c3.14,2.73,5.57,5.97,7.22,9.63c1.62,3.58,2.63,7.4,3,11.35
				l0.28,2.97l0.37-0.01c-0.25-4.88-1.21-9.31-2.84-13.17c-1.76-4.15-4.29-7.69-7.5-10.54c-3.25-2.86-7.3-5.05-12.01-6.53
				C458.67,649.23,458.27,649.11,457.86,649z M444.3,653.11c-0.57,0-1.14,0.01-1.72,0.02c-5.25,0.14-9.86,0.97-13.7,2.45
				c-3.83,1.46-7.07,3.4-9.64,5.75c-2.59,2.34-4.6,5.04-6.01,8.04c-0.96,2.05-1.67,4.19-2.14,6.39l63.41-1.69
				c-0.44-2.21-1.13-4.35-2.06-6.41c-1.3-2.89-3.22-5.45-5.73-7.62c-2.53-2.21-5.79-3.96-9.68-5.21
				C453.46,653.69,449.19,653.11,444.3,653.11z"/>
		</g>
		<g>
			<path class="st0" d="M166.4,629.47c-0.81-2.3-1.98-4.62-3.54-6.97c-1.57-2.36-3.32-4.71-5.25-7.05
				c-1.94-2.34-3.98-4.69-6.14-7.03c-2.15-2.35-4.24-4.63-6.25-6.86c-2.01-2.23-3.87-4.42-5.57-6.57c-1.69-2.14-3.06-4.18-4.1-6.11
				c-1.04-1.95-1.65-3.8-1.86-5.55c-0.18-1.76,0.23-3.39,1.23-4.9c1.2-1.81,2.73-3.04,4.6-3.69c1.87-0.65,4.03-0.77,6.49-0.37
				c2.48,0.4,5.23,1.3,8.24,2.71c3.01,1.41,6.28,3.28,9.81,5.61c2.91,1.93,5.45,3.84,7.61,5.75c2.16,1.91,4.04,3.74,5.62,5.49
				c1.56,1.75,2.88,3.44,3.96,5.05c1.06,1.6,1.99,3.06,2.77,4.35l4.15-6.27c-1.56-1.75-3.13-3.46-4.7-5.12
				c-1.55-1.65-3.19-3.28-4.9-4.9c-1.72-1.62-3.54-3.21-5.48-4.8c-1.94-1.58-4.07-3.14-6.4-4.68c-2.12-1.4-4.34-2.72-6.67-3.96
				c-2.31-1.23-4.63-2.29-6.94-3.18c-2.33-0.9-4.64-1.54-6.92-1.93c-2.28-0.4-4.45-0.48-6.52-0.23c-2.08,0.27-4.01,0.93-5.78,1.98
				c-1.8,1.05-3.36,2.58-4.69,4.59c-1.35,2.03-2.06,4.14-2.13,6.31c-0.07,2.16,0.32,4.37,1.15,6.62c0.84,2.24,2.05,4.51,3.63,6.82
				c1.59,2.32,3.37,4.62,5.32,6.91c1.95,2.29,4.02,4.59,6.2,6.89c2.18,2.28,4.27,4.54,6.28,6.77c2,2.22,3.83,4.41,5.52,6.56
				c1.7,2.16,3.04,4.25,4.03,6.27c0.99,2.02,1.54,3.96,1.64,5.83c0.13,1.87-0.36,3.63-1.45,5.29c-1.37,2.08-3.11,3.44-5.23,4.09
				c-2.12,0.64-4.54,0.7-7.25,0.19c-2.71-0.53-5.66-1.55-8.83-3.05c-3.18-1.52-6.48-3.42-9.91-5.68
				c-4.86-3.22-9.21-6.72-13.03-10.51c-3.83-3.78-6.95-8.15-9.35-13.12l-4.41,6.67c2.98,3.85,6.33,7.55,10.06,11.1
				c3.74,3.55,8.21,7.05,13.41,10.49c2.27,1.5,4.64,2.94,7.1,4.3c2.47,1.35,4.96,2.53,7.46,3.52c2.5,0.97,4.98,1.7,7.45,2.19
				c2.46,0.49,4.81,0.6,7.05,0.33c2.25-0.25,4.35-0.94,6.29-2.06c1.96-1.11,3.67-2.78,5.15-5.01c1.36-2.06,2.09-4.19,2.19-6.4
				C167.58,634,167.22,631.76,166.4,629.47z"/>
			<path class="st0" d="M151.47,652.72c-1.7,0-3.45-0.18-5.23-0.53c-2.62-0.52-5.29-1.3-7.94-2.33c-2.62-1.04-5.24-2.28-7.81-3.68
				c-2.52-1.4-4.98-2.89-7.31-4.43c-5.31-3.51-9.96-7.15-13.81-10.81c-3.81-3.63-7.3-7.47-10.36-11.43l-1.28-1.65l8.39-12.69
				l2.23,4.62c2.24,4.65,5.19,8.79,8.77,12.31c3.67,3.64,7.91,7.06,12.59,10.15c3.3,2.18,6.51,4.02,9.56,5.49
				c2.93,1.38,5.67,2.33,8.13,2.81c2.21,0.42,4.18,0.38,5.85-0.13c1.44-0.44,2.63-1.39,3.63-2.9c0.74-1.12,1.06-2.26,0.98-3.48
				c-0.09-1.51-0.54-3.09-1.35-4.75c-0.9-1.83-2.15-3.77-3.7-5.75c-1.64-2.1-3.45-4.25-5.39-6.41c-1.99-2.21-4.06-4.44-6.22-6.7
				c-2.22-2.35-4.34-4.71-6.31-7.02c-2.01-2.36-3.86-4.77-5.5-7.15c-1.71-2.49-3.04-4.99-3.96-7.44c-0.97-2.62-1.41-5.21-1.34-7.74
				c0.09-2.72,0.97-5.35,2.61-7.83c1.57-2.37,3.47-4.22,5.65-5.5c2.1-1.24,4.42-2.04,6.89-2.35c2.37-0.29,4.86-0.2,7.4,0.25
				c2.44,0.42,4.96,1.12,7.46,2.08c2.41,0.93,4.86,2.05,7.26,3.32c2.4,1.28,4.73,2.66,6.91,4.1c2.4,1.58,4.63,3.22,6.63,4.85
				c1.99,1.63,3.89,3.28,5.64,4.93c1.76,1.66,3.45,3.35,5.03,5.02c1.58,1.67,3.17,3.4,4.75,5.18l1.49,1.68l-7.93,11.99l-2.38-3.95
				c-0.76-1.27-1.67-2.69-2.7-4.25c-0.99-1.49-2.24-3.08-3.7-4.72c-1.49-1.64-3.3-3.41-5.38-5.25c-2.06-1.82-4.51-3.67-7.29-5.5
				c-3.39-2.24-6.56-4.06-9.44-5.41c-2.75-1.29-5.26-2.12-7.47-2.48c-1.97-0.32-3.68-0.24-5.08,0.24c-1.26,0.44-2.28,1.27-3.12,2.54
				c-0.63,0.95-0.87,1.9-0.76,3c0.16,1.35,0.67,2.86,1.53,4.47c0.95,1.76,2.24,3.67,3.82,5.67c1.66,2.09,3.5,4.25,5.45,6.42
				c2,2.22,4.08,4.51,6.23,6.85c2.17,2.37,4.27,4.77,6.23,7.15c1.99,2.41,3.82,4.87,5.44,7.29c1.68,2.54,2.97,5.1,3.86,7.61
				c0.94,2.63,1.36,5.26,1.25,7.82c-0.12,2.73-1.01,5.38-2.67,7.88c-1.72,2.6-3.79,4.6-6.14,5.94c-2.26,1.31-4.76,2.12-7.4,2.42
				C153.3,652.67,152.39,652.72,151.47,652.72z M147.2,646.43c0.06,0.01,0.12,0.03,0.18,0.04c2.15,0.43,4.22,0.53,6.14,0.3
				c1.88-0.21,3.57-0.76,5.18-1.69c1.56-0.89,2.96-2.26,4.17-4.09c1.08-1.63,1.64-3.23,1.71-4.91c0.08-1.81-0.23-3.7-0.92-5.62
				l0-0.02c-0.72-2.06-1.81-4.19-3.22-6.32c-1.5-2.25-3.2-4.54-5.07-6.8c-1.9-2.3-3.93-4.62-6.04-6.92
				c-2.16-2.35-4.25-4.65-6.27-6.89c-2.03-2.26-3.95-4.51-5.69-6.71c-1.79-2.27-3.27-4.47-4.39-6.54c-1.21-2.28-1.94-4.49-2.19-6.61
				c-0.25-2.48,0.32-4.77,1.69-6.84c1.56-2.35,3.6-3.98,6.08-4.84c2.02-0.7,4.3-0.91,6.79-0.64c-1.88-0.31-3.68-0.36-5.36-0.15
				c-1.68,0.22-3.21,0.74-4.65,1.59c-1.41,0.83-2.67,2.07-3.74,3.69c-1.05,1.59-1.59,3.16-1.65,4.8c-0.06,1.76,0.27,3.62,0.97,5.51
				c0.75,2,1.87,4.08,3.3,6.18c1.52,2.21,3.25,4.45,5.13,6.67c1.9,2.23,3.95,4.51,6.1,6.78c2.19,2.29,4.3,4.57,6.33,6.82
				c2.03,2.26,3.93,4.52,5.65,6.72c1.81,2.3,3.27,4.58,4.35,6.78c1.16,2.36,1.81,4.7,1.94,6.96c0.17,2.48-0.48,4.86-1.93,7.06
				c-1.75,2.65-4.04,4.42-6.8,5.27C152.63,646.72,150.02,646.86,147.2,646.43z M104.94,617.58c2.56,3.15,5.4,6.22,8.47,9.14
				c1.08,1.03,2.23,2.05,3.44,3.08c-1.32-1.15-2.59-2.33-3.8-3.54c-2.88-2.84-5.41-6.04-7.54-9.54L104.94,617.58z M179.57,592.13
				c1.61,1.82,2.99,3.58,4.11,5.26c0.13,0.2,0.27,0.41,0.4,0.61l0.42-0.63c-1.05-1.15-2.09-2.28-3.14-3.39
				C180.78,593.36,180.18,592.74,179.57,592.13z"/>
		</g>
		<g>
			
				<rect x="160.37" y="635.56" transform="matrix(0.3983 -0.9172 0.9172 0.3983 -467.8634 564.4186)" class="st0" width="71.85" height="6.54"/>
			<path class="st0" d="M186.5,676.93L175.15,672l30.94-71.25l11.35,4.93L186.5,676.93z M182.82,668.97l0.65,0.28l26.3-60.56
				l-0.65-0.28L182.82,668.97z"/>
		</g>
		<g>
			
				<rect x="66.98" y="575.48" transform="matrix(0.6222 -0.7829 0.7829 0.6222 -414.2175 299.2456)" class="st0" width="71.85" height="6.54"/>
			<path class="st0" d="M83.59,613.01l-9.69-7.7l48.33-60.82l9.68,7.7L83.59,613.01z M82.09,604.37l0.56,0.44l41.07-51.69
				l-0.56-0.44L82.09,604.37z"/>
		</g>
		<g>
			<path class="st0" d="M99.39,542.05c-0.8-4.58-2.63-9.02-5.5-13.33c-2.89-4.31-6.47-8.48-10.74-12.53l-26.84-25.45L6.87,542.89
				l26.92,25.52c2.86,2.71,5.76,5.11,8.68,7.2c2.95,2.08,5.92,3.78,8.89,5.08c2.99,1.29,6.02,2.12,9.11,2.49
				c3.07,0.38,6.15,0.2,9.24-0.53c3.1-0.72,6.22-2.04,9.36-3.97c3.15-1.94,6.31-4.58,9.49-7.93c4.72-4.98,7.9-9.87,9.54-14.65
				C99.74,551.3,100.17,546.62,99.39,542.05z M71.79,574.91c-3.89,1.63-7.73,2.22-11.53,1.78c-3.77-0.44-7.52-1.79-11.26-4.04
				c-3.72-2.26-7.44-5.16-11.15-8.67l-22.1-20.95l41.21-43.47l22.1,20.95c2.47,2.34,4.68,4.7,6.62,7.07
				c1.93,2.36,3.51,4.77,4.75,7.23c1.23,2.44,2.08,4.91,2.54,7.41c0.47,2.49,0.46,5.04-0.03,7.64c-0.5,2.59-1.5,5.23-3,7.93
				c-1.5,2.7-3.59,5.47-6.28,8.3C79.63,570.36,75.67,573.29,71.79,574.91z"/>
			<path class="st0" d="M63.61,586.28c-1.17,0-2.33-0.07-3.49-0.21c-3.34-0.4-6.68-1.31-9.91-2.71c-3.16-1.38-6.32-3.19-9.42-5.38
				c-3.03-2.16-6.06-4.67-9.01-7.46L2.75,543l53.45-56.37l28.96,27.46c4.4,4.17,8.16,8.55,11.15,13.02
				c3.09,4.64,5.09,9.5,5.95,14.45l0,0.01c0.86,5.03,0.39,10.24-1.41,15.48c-1.76,5.16-5.19,10.44-10.18,15.71
				c-3.33,3.52-6.72,6.34-10.07,8.41c-3.39,2.08-6.84,3.54-10.23,4.33C68.13,586.01,65.87,586.28,63.61,586.28z M10.99,542.78
				l24.8,23.51c2.75,2.61,5.57,4.94,8.37,6.94c2.76,1.95,5.58,3.57,8.37,4.79c2.7,1.17,5.49,1.93,8.28,2.26
				c2.72,0.34,5.48,0.18,8.22-0.47c2.79-0.65,5.65-1.87,8.51-3.62c2.92-1.79,5.91-4.3,8.89-7.45c4.41-4.65,7.4-9.22,8.89-13.59
				c1.48-4.31,1.87-8.55,1.18-12.6c-0.72-4.15-2.42-8.26-5.05-12.21c-2.75-4.1-6.23-8.15-10.32-12.03l-24.73-23.45L10.99,542.78z
				 M62.68,579.74c-0.92,0-1.84-0.05-2.76-0.16c-4.17-0.49-8.35-1.99-12.43-4.44c-3.89-2.37-7.81-5.41-11.65-9.06l-24.21-22.96
				l45.22-47.7l24.21,22.96c2.55,2.42,4.86,4.89,6.87,7.34c2.06,2.51,3.77,5.13,5.1,7.77c1.35,2.67,2.3,5.43,2.8,8.2
				c0.53,2.82,0.52,5.75-0.03,8.7c-0.56,2.9-1.67,5.86-3.32,8.81c-1.61,2.9-3.87,5.89-6.72,8.89c-4.3,4.53-8.63,7.73-12.87,9.49
				C69.51,579.03,66.07,579.74,62.68,579.74z M19.88,542.91l19.98,18.94c3.54,3.36,7.13,6.15,10.66,8.3
				c3.35,2.02,6.75,3.25,10.09,3.64c3.26,0.38,6.65-0.15,10.06-1.57l0.01,0c3.48-1.45,7.14-4.18,10.88-8.12
				c2.51-2.65,4.48-5.24,5.85-7.71c1.34-2.42,2.25-4.79,2.68-7.07c0.41-2.22,0.42-4.43,0.02-6.55c-0.41-2.23-1.17-4.46-2.27-6.63
				c-1.14-2.27-2.62-4.52-4.4-6.7c-1.85-2.26-4-4.55-6.37-6.8l-19.98-18.94L19.88,542.91z"/>
		</g>
		<g>
			<path class="st0" d="M342.86,644.82c-4.59,0.4-8.44,1.38-11.56,2.94c-3.12,1.56-5.55,3.69-7.29,6.39
				c-1.72,2.7-2.85,5.88-3.4,9.55l-7.12,47.79l6.47,0.96l4.88-32.75l60.73,9.05l0.9-6.05l-60.73-9.05l1.18-7.91
				c0.48-3.22,1.48-5.89,2.99-8.02c1.52-2.14,3.6-3.77,6.25-4.9c2.65-1.13,5.91-1.75,9.78-1.89c3.86-0.15,8.39,0.16,13.59,0.94
				l31.88,4.75l0.9-6.05l-33.17-4.94C352.88,644.72,347.45,644.44,342.86,644.82z"/>
			<path class="st0" d="M322.42,715.77l-12.24-1.82l7.55-50.68c0.61-4.06,1.89-7.65,3.83-10.69c2.02-3.14,4.86-5.64,8.44-7.43
				c3.44-1.72,7.68-2.81,12.61-3.24l0.01,0c4.79-0.39,10.49-0.11,16.97,0.85l36.05,5.37l-1.76,11.82l-34.76-5.18
				c-5-0.75-9.39-1.05-13.05-0.91c-3.51,0.12-6.45,0.68-8.76,1.66c-2.16,0.92-3.8,2.19-5.01,3.9c-1.24,1.74-2.08,4.01-2.49,6.76
				l-0.75,5.02l60.73,9.05l-1.76,11.82l-60.73-9.05L322.42,715.77z M316.81,709.04l0.7,0.11l4.88-32.75l60.73,9.05l0.04-0.28
				l-60.73-9.05l1.61-10.79c0.55-3.67,1.73-6.79,3.51-9.28c1.82-2.57,4.35-4.55,7.49-5.89c2.97-1.26,6.61-1.97,10.82-2.12
				c4.01-0.16,8.76,0.17,14.12,0.97l28.99,4.32l0.04-0.28l-30.28-4.51c-6.03-0.9-11.29-1.17-15.62-0.81
				c-4.19,0.36-7.72,1.25-10.5,2.64c-2.67,1.34-4.68,3.09-6.14,5.36c-1.48,2.33-2.48,5.16-2.97,8.4L316.81,709.04z"/>
		</g>
	</g>
</g>
</svg>
