<?xml version="1.0" encoding="utf-8"?>
<!-- Generator: Adobe Illustrator 24.1.2, SVG Export Plug-In . SVG Version: 6.00 Build 0)  -->
<svg version="1.1" id="Layer_1" xmlns="http://www.w3.org/2000/svg" xmlns:xlink="http://www.w3.org/1999/xlink" x="0px" y="0px"
	 viewBox="0 0 864 864" style="enable-background:new 0 0 864 864;" xml:space="preserve">
<style type="text/css">
	.st0{fill:#67BCFF;}
	.st1{fill:#148FF1;}
	.st2{fill:#005BA2;}
	.st3{fill:#67BCFF;fill-opacity:0;}
</style>
<g>
	<g transform="matrix(0.49386098980903625, 0, 0, 0.49386098980903625, -584.118408203125, -263.44108295440674)">
		<g transform="matrix(1, 0, 0, 1, 0, 0)">
			<path class="st0" d="M2233.74,1119.39c0,96.69-78.61,175.29-175.29,175.29s-175.29-78.61-175.29-175.29
				s175.29-345.11,175.29-345.11S2233.74,1022.7,2233.74,1119.39z"/>
			<g transform="matrix(0.9999999999999999, 0, 0, 0.9999999999999999, 884.447837390581, 41.99891965262532)">
				<path class="st1" d="M1174,1331.29c-74.5,0-144.62-12.05-197.48-34.24c-57.24-23.83-88.74-56.97-88.74-93.67
					c0-20.27,9.86-50.12,56.42-77.79c7.12-4.11,16.43-1.92,20.54,5.2c4.11,7.12,1.92,16.43-5.2,20.54
					c-26.84,15.89-41.63,34.24-41.63,51.77c0,23.28,25.47,47.38,70.12,65.74c49.58,20.54,115.58,31.77,185.98,31.77
					s136.67-11.23,185.98-31.77c44.65-18.62,70.12-42.45,70.12-65.74c0-21.64-21.64-39.44-39.71-50.4
					c-7.12-4.38-9.31-13.69-4.93-20.82c4.38-7.12,13.69-9.31,20.82-4.93c44.65,27.39,53.96,56.42,53.96,76.14
					c0,36.7-31.5,69.84-88.74,93.67C1318.62,1318.97,1248.5,1331.29,1174,1331.29z"/>
			</g>
			<g transform="matrix(0.9999999999999999, 0, 0, 0.9999999999999999, 884.447837390581, 41.99891965262532)">
				<path class="st2" d="M1174,1382.51c-229.8,0-409.75-78.61-409.75-179.13c0-62.17,66.83-116.95,183.51-150.09
					c7.94-2.19,16.43,2.47,18.62,10.41c2.19,7.94-2.47,16.43-10.41,18.62c-99.7,28.21-161.6,74.5-161.6,121.06
					c0,72.03,152.56,149,379.62,149s379.62-76.96,379.62-149c0-46.01-61.08-92.03-159.41-120.51c-7.94-2.19-12.6-10.68-10.41-18.62
					c2.19-7.94,10.68-12.6,18.62-10.41c115.04,33.14,181.05,87.65,181.05,149.27C1583.75,1303.9,1403.8,1382.51,1174,1382.51z"/>
			</g>
		</g>
	</g>
	<g>
		<g>
			<path class="st3" d="M496.61,486.92c-5.27-4.86-11.96-8.7-20.05-11.53c-8.13-2.86-17.86-4.29-29.2-4.29
				c-10.67,0-20.01,1.43-28.01,4.29c-8.03,2.83-14.83,6.65-20.39,11.48c-5.59,4.79-9.97,10.35-13.15,16.67
				c-3.18,6.35-5.19,13.04-6.05,20.05h133.42c-0.48-6.95-2.05-13.61-4.72-19.96C505.83,497.32,501.88,491.74,496.61,486.92z"/>
			<path class="st0" d="M516.12,526.33H376.67l0.38-3.07c0.89-7.3,3.01-14.34,6.32-20.95c3.32-6.62,7.97-12.51,13.81-17.53
				c5.79-5.02,12.94-9.06,21.26-11.99c8.25-2.94,17.98-4.44,28.92-4.44c11.59,0,21.72,1.49,30.11,4.44c8.41,2.94,15.48,7.01,21,12.1
				c5.54,5.08,9.76,11.03,12.53,17.68c2.77,6.59,4.43,13.6,4.92,20.82L516.12,526.33z M382.94,520.86h127.24
				c-0.65-5.58-2.08-11.01-4.24-16.16c-2.47-5.92-6.23-11.22-11.19-15.76l-0.01-0.01c-4.97-4.58-11.4-8.27-19.1-10.96
				c-7.8-2.74-17.32-4.13-28.3-4.13c-10.3,0-19.42,1.39-27.09,4.12c-7.68,2.7-14.24,6.39-19.51,10.97
				c-5.3,4.55-9.5,9.87-12.49,15.83C385.71,509.88,383.93,515.28,382.94,520.86z"/>
		</g>
		<g>
			<path class="st3" d="M136.47,495.21c-2.73-4.22-6.05-7.75-9.96-10.57c-3.91-2.86-8.3-5.16-13.19-6.91
				c-4.92-1.78-10.26-3.03-16-3.76c-5.78-0.73-11.91-1.1-18.39-1.1H21.06v113.84h57.87c9.72,0,18.62-0.87,26.72-2.62
				c8.1-1.78,15.04-4.83,20.82-9.15c5.81-4.35,10.34-10.19,13.58-17.53c3.24-7.3,4.86-16.53,4.86-27.67
				c0-7.43-0.73-13.99-2.19-19.67C141.25,504.38,139.17,499.43,136.47,495.21z"/>
			<path class="st0" d="M78.93,589.45H18.32V470.13h60.61c6.57,0,12.87,0.37,18.73,1.12c5.92,0.75,11.51,2.07,16.59,3.91
				c5.1,1.82,9.77,4.27,13.88,7.27c4.15,3.01,7.73,6.81,10.64,11.3l0.01,0.01c2.84,4.45,5.06,9.71,6.59,15.66
				c1.51,5.89,2.28,12.73,2.28,20.35c0,11.47-1.71,21.16-5.1,28.78c-3.41,7.73-8.27,13.99-14.44,18.61
				c-6.07,4.54-13.43,7.78-21.87,9.63C97.99,588.55,88.8,589.45,78.93,589.45z M23.8,583.97h55.13c9.48,0,18.28-0.86,26.15-2.56
				c7.67-1.69,14.32-4.6,19.75-8.66c5.4-4.04,9.68-9.58,12.71-16.44c3.07-6.92,4.63-15.86,4.63-26.57c0-7.16-0.71-13.55-2.11-18.99
				c-1.38-5.38-3.36-10.11-5.89-14.06c-2.53-3.92-5.65-7.22-9.25-9.84c-3.69-2.7-7.9-4.89-12.51-6.55
				c-4.72-1.7-9.91-2.92-15.43-3.62c-5.63-0.71-11.7-1.07-18.04-1.07H23.8V583.97z"/>
		</g>
		<g>
			<polygon class="st0" points="719.57,472.87 781.73,472.87 781.73,598.14 794.02,598.14 794.02,472.87 856.18,472.87 
				856.18,461.58 719.57,461.58 			"/>
			<path class="st0" d="M796.76,600.88h-17.77V475.61h-62.16v-16.77h142.09v16.77h-62.16V600.88z M784.47,595.4h6.81V470.13h62.16
				v-5.81H722.31v5.81h62.16V595.4z"/>
		</g>
		<g>
			<path class="st0" d="M673.07,462.86c-5.02-1.21-10.3-2.14-15.86-2.81c-5.59-0.67-11.65-1-18.2-1c-8.16,0-15.96,0.67-23.39,2
				c-7.43,1.33-14.35,3.32-20.77,5.95c-6.41,2.67-12.24,5.97-17.48,9.91c-5.24,3.94-9.73,8.53-13.48,13.77
				c-3.75,5.24-6.64,11.15-8.67,17.72c-2,6.54-3,13.72-3,21.53c0,7.84,1,15.04,3,21.58c2.03,6.57,4.92,12.48,8.67,17.72
				c3.75,5.24,8.24,9.83,13.48,13.77c5.24,3.94,11.07,7.22,17.48,9.86c6.41,2.67,13.35,4.67,20.82,6c7.46,1.3,15.24,1.95,23.34,1.95
				c6.54,0,12.61-0.33,18.2-1c5.56-0.64,10.84-1.56,15.86-2.76c5.05-1.21,9.91-2.64,14.58-4.29c4.67-1.65,9.4-3.46,14.19-5.43
				v-14.81c-3.52,2.32-7.43,4.51-11.72,6.57c-4.25,2.1-8.92,3.94-14,5.53c-5.08,1.59-10.51,2.84-16.29,3.76
				c-5.81,0.95-11.96,1.43-18.43,1.43c-13.15,0-24.51-1.41-34.1-4.24c-9.62-2.83-17.56-6.84-23.82-12.05
				c-6.26-5.18-10.89-11.45-13.91-18.81c-3.02-7.37-4.53-15.62-4.53-24.77c0-9.15,1.51-17.4,4.53-24.77
				c3.02-7.4,7.65-13.7,13.91-18.91c6.26-5.21,14.19-9.22,23.82-12.05c9.59-2.86,20.96-4.29,34.1-4.29c6.48,0,12.57,0.46,18.29,1.38
				c5.68,0.92,11.03,2.18,16.05,3.76c4.99,1.59,9.64,3.45,13.96,5.57c4.32,2.13,8.37,4.38,12.15,6.76v-14.91
				c-4.8-1.97-9.53-3.78-14.19-5.43C682.97,465.44,678.11,464.04,673.07,462.86z"/>
			<path class="st0" d="M639.01,603.55c-8.22,0-16.23-0.67-23.81-1.99c-7.64-1.37-14.84-3.45-21.4-6.17
				c-6.59-2.7-12.67-6.14-18.08-10.2c-5.44-4.09-10.17-8.92-14.06-14.36c-3.9-5.46-6.95-11.68-9.06-18.5
				c-2.07-6.78-3.12-14.3-3.12-22.39c0-8.05,1.05-15.57,3.12-22.33c2.11-6.83,5.16-13.05,9.06-18.51
				c3.89-5.45,8.63-10.28,14.06-14.37c5.4-4.06,11.48-7.5,18.08-10.25c6.57-2.7,13.75-4.76,21.33-6.12
				c7.57-1.36,15.6-2.04,23.87-2.04c6.61,0,12.84,0.34,18.52,1.02c5.64,0.68,11.08,1.64,16.17,2.87c5.1,1.19,10.1,2.62,14.84,4.27
				c4.69,1.66,9.51,3.5,14.34,5.48l1.7,0.7v21.71l-4.2-2.65c-3.68-2.32-7.68-4.54-11.9-6.63c-4.19-2.06-8.75-3.88-13.57-5.42
				c-4.87-1.54-10.13-2.78-15.66-3.67c-5.54-0.89-11.55-1.35-17.85-1.35c-12.82,0-24.03,1.4-33.32,4.17
				c-9.23,2.71-16.91,6.59-22.85,11.53c-5.88,4.89-10.3,10.9-13.13,17.84c-2.87,7.01-4.32,14.99-4.32,23.74
				c0,8.75,1.46,16.73,4.32,23.73c2.83,6.91,7.24,12.88,13.12,17.74c5.94,4.95,13.63,8.83,22.84,11.54
				c9.3,2.74,20.51,4.13,33.33,4.13c6.29,0,12.34-0.47,17.99-1.4c5.63-0.9,10.98-2.13,15.92-3.67c4.92-1.54,9.5-3.34,13.61-5.37
				c4.18-2.01,8.02-4.16,11.42-6.41l4.24-2.79v21.73l-1.7,0.7c-4.78,1.96-9.6,3.81-14.32,5.48c-4.73,1.67-9.73,3.14-14.85,4.37
				c-5.09,1.23-10.54,2.17-16.19,2.82C651.87,603.2,645.64,603.55,639.01,603.55z M639.01,461.79c-7.95,0-15.66,0.66-22.9,1.96
				c-7.21,1.29-14.01,3.24-20.21,5.79c-6.16,2.56-11.84,5.78-16.88,9.56c-4.99,3.75-9.33,8.18-12.9,13.17
				c-3.56,4.98-6.34,10.68-8.28,16.93c-1.91,6.24-2.88,13.21-2.88,20.72c0,7.54,0.97,14.53,2.88,20.78
				c1.93,6.25,4.72,11.95,8.28,16.92c3.57,4.99,7.91,9.42,12.9,13.17c5.03,3.78,10.71,6.98,16.88,9.52
				c6.2,2.58,13.01,4.54,20.26,5.84c7.26,1.27,14.95,1.91,22.86,1.91c6.42,0,12.43-0.33,17.87-0.98c5.44-0.62,10.67-1.53,15.55-2.71
				c4.94-1.18,9.75-2.59,14.3-4.2c4.08-1.44,8.23-3.02,12.37-4.69v-8.06c-2.45,1.43-5.06,2.81-7.79,4.13
				c-4.35,2.14-9.19,4.05-14.37,5.67c-5.19,1.62-10.8,2.92-16.68,3.85c-5.93,0.97-12.28,1.47-18.87,1.47
				c-13.34,0-25.08-1.46-34.88-4.35c-9.94-2.92-18.28-7.15-24.8-12.57c-6.57-5.44-11.52-12.13-14.69-19.88
				c-3.14-7.66-4.73-16.35-4.73-25.81c0-9.46,1.59-18.14,4.73-25.81c3.17-7.78,8.11-14.5,14.69-19.98
				c6.51-5.42,14.86-9.66,24.8-12.57c9.79-2.92,21.53-4.4,34.88-4.4c6.59,0,12.9,0.48,18.73,1.41c5.79,0.94,11.32,2.23,16.44,3.86
				c5.08,1.62,9.91,3.54,14.34,5.72c2.84,1.4,5.58,2.86,8.2,4.37v-8.22c-4.18-1.69-8.33-3.26-12.37-4.69
				c-4.55-1.58-9.36-2.96-14.28-4.11l-0.02,0c-4.88-1.17-10.12-2.1-15.55-2.76C651.42,462.12,645.4,461.79,639.01,461.79z"/>
		</g>
		<g>
			<path class="st0" d="M505.13,479.25c-6.64-6.16-14.8-10.89-24.48-14.19c-9.69-3.33-20.72-5-33.1-5c-11.91,0-22.8,1.73-32.68,5.19
				c-9.88,3.43-18.37,8.26-25.48,14.48c-7.08,6.26-12.59,13.72-16.53,22.39c-3.94,8.67-5.91,18.21-5.91,28.63
				c0,10.73,2.05,20.4,6.14,29.01c4.13,8.64,9.97,15.99,17.53,22.05c7.59,6.07,16.8,10.72,27.63,13.96
				c10.8,3.24,22.88,4.86,36.25,4.86c5.78,0,11.07-0.17,15.86-0.52c4.8-0.38,9.53-0.95,14.19-1.71c4.64-0.76,9.34-1.75,14.1-2.95
				c4.76-1.24,9.92-2.71,15.48-4.43v-14.43c-2.64,1.65-6.03,3.25-10.19,4.81c-4.19,1.56-8.81,2.95-13.86,4.19
				c-5.02,1.24-10.27,2.22-15.77,2.95c-5.53,0.73-10.97,1.1-16.34,1.1c-12.57,0-23.59-1.29-33.06-3.86
				c-9.43-2.54-17.37-6.19-23.82-10.96c-6.48-4.79-11.46-10.61-14.96-17.43c-3.52-6.83-5.65-14.48-6.38-22.96h145.61v-3.05
				c0-11.02-1.71-20.91-5.14-29.68C516.77,492.89,511.74,485.41,505.13,479.25z M379.77,523.59c0.86-7.02,2.87-13.7,6.05-20.05
				c3.18-6.32,7.56-11.88,13.15-16.67c5.56-4.83,12.35-8.65,20.39-11.48c8-2.86,17.34-4.29,28.01-4.29c11.34,0,21.07,1.43,29.2,4.29
				c8.1,2.83,14.78,6.67,20.05,11.53c5.27,4.83,9.22,10.4,11.86,16.72c2.67,6.35,4.24,13,4.72,19.96H379.77z"/>
			<path class="st0" d="M454.5,603.36c-13.58,0-26.04-1.67-37.03-4.97c-11.11-3.32-20.72-8.18-28.55-14.44
				c-7.85-6.3-14-14.04-18.29-23.01c-4.26-8.94-6.41-19.1-6.41-30.19c0-10.76,2.07-20.77,6.15-29.76
				c4.08-8.99,9.87-16.83,17.21-23.31c7.35-6.44,16.23-11.48,26.4-15.02c10.11-3.55,21.41-5.34,33.58-5.34
				c12.62,0,24.06,1.73,33.99,5.15c10,3.41,18.57,8.38,25.46,14.78l0,0.01c6.88,6.41,12.19,14.3,15.78,23.44
				c3.54,9.05,5.33,19.37,5.33,30.68v5.79h-145.3c0.9,6.92,2.84,13.29,5.77,18.96c3.28,6.42,8.05,11.97,14.15,16.49
				c6.14,4.53,13.84,8.07,22.9,10.51c9.19,2.5,20.07,3.76,32.34,3.76c5.23,0,10.61-0.36,15.98-1.07c5.36-0.71,10.57-1.69,15.47-2.9
				c4.91-1.21,9.47-2.58,13.56-4.1c3.96-1.48,7.22-3.02,9.69-4.57l4.19-2.63v21.4l-1.93,0.59c-5.56,1.71-10.8,3.22-15.6,4.46
				c-4.84,1.23-9.66,2.23-14.35,3c-4.73,0.77-9.58,1.36-14.42,1.74C465.74,603.18,460.33,603.36,454.5,603.36z M447.55,462.79
				c-11.54,0-22.24,1.7-31.77,5.04c-9.51,3.3-17.78,8-24.59,13.96c-6.74,5.96-12.08,13.18-15.84,21.46
				c-3.76,8.27-5.66,17.52-5.66,27.49c0,10.27,1.98,19.63,5.88,27.83c3.93,8.22,9.57,15.32,16.77,21.09
				c7.28,5.81,16.26,10.35,26.7,13.47c10.49,3.15,22.42,4.74,35.46,4.74c5.7,0,10.97-0.17,15.66-0.52
				c4.67-0.37,9.37-0.94,13.95-1.69c4.53-0.74,9.2-1.72,13.87-2.9c4.14-1.08,8.65-2.35,13.41-3.8v-7.79
				c-1.93,0.94-4.11,1.86-6.49,2.76c-4.29,1.59-9.06,3.03-14.17,4.29c-5.09,1.25-10.49,2.27-16.06,3.01
				c-5.61,0.74-11.23,1.12-16.7,1.12c-12.76,0-24.13-1.33-33.77-3.95c-9.71-2.62-18.03-6.45-24.73-11.39
				c-6.79-5.03-12.1-11.22-15.77-18.39c-3.67-7.1-5.91-15.17-6.67-23.97l-0.26-2.97h145.86v-0.31c0-10.63-1.67-20.27-4.96-28.68
				c-3.29-8.36-8.14-15.58-14.41-21.42l0,0c-6.32-5.87-14.23-10.45-23.51-13.61C470.4,464.42,459.56,462.79,447.55,462.79z
				 M516.12,526.33H376.67l0.38-3.07c0.89-7.3,3.01-14.34,6.32-20.95c3.32-6.62,7.97-12.51,13.81-17.53
				c5.79-5.02,12.94-9.06,21.26-11.99c8.25-2.94,17.98-4.44,28.92-4.44c11.59,0,21.72,1.49,30.11,4.44c8.41,2.94,15.48,7.01,21,12.1
				c5.54,5.07,9.76,11.02,12.53,17.68c2.77,6.59,4.43,13.6,4.92,20.82L516.12,526.33z M382.94,520.86h127.24
				c-0.65-5.58-2.08-11.01-4.24-16.16c-2.47-5.92-6.23-11.23-11.19-15.76c-4.98-4.59-11.4-8.27-19.11-10.96
				c-7.8-2.74-17.32-4.13-28.3-4.13c-10.3,0-19.42,1.39-27.09,4.12c-7.68,2.7-14.24,6.39-19.51,10.97
				c-5.3,4.55-9.5,9.87-12.49,15.83C385.71,509.88,383.93,515.28,382.94,520.86z"/>
		</g>
		<g>
			<path class="st0" d="M135.14,476.01c-7.08-5.27-15.42-9-25.01-11.19c-9.62-2.16-20.02-3.24-31.2-3.24H8.63v136.56h70.5
				c7.49,0,14.62-0.48,21.39-1.43c6.8-0.98,13.1-2.52,18.91-4.62c5.81-2.13,11.08-4.95,15.81-8.48c4.73-3.49,8.75-7.76,12.05-12.81
				c3.33-5.05,5.91-10.96,7.72-17.72c1.81-6.8,2.72-14.58,2.72-23.34c0-13.05-2-23.94-6-32.68
				C147.71,488.3,142.19,481.28,135.14,476.01z M140.04,557.41c-3.24,7.34-7.76,13.18-13.58,17.53c-5.78,4.32-12.72,7.37-20.82,9.15
				c-8.1,1.75-17,2.62-26.72,2.62H21.06V472.87h57.87c6.48,0,12.61,0.37,18.39,1.1c5.75,0.73,11.08,1.98,16,3.76
				c4.89,1.75,9.29,4.05,13.19,6.91c3.91,2.83,7.22,6.35,9.96,10.57c2.7,4.22,4.78,9.18,6.24,14.86c1.46,5.68,2.19,12.24,2.19,19.67
				C144.9,540.89,143.28,550.11,140.04,557.41z"/>
			<path class="st0" d="M79.12,600.88H5.89V458.84h73.05c11.32,0,22.02,1.11,31.8,3.31c9.93,2.27,18.69,6.19,26.04,11.67l0.01,0
				c7.39,5.53,13.25,12.97,17.43,22.11c4.15,9.05,6.25,20.43,6.25,33.81c0,8.97-0.94,17.05-2.81,24.04
				c-1.88,7.02-4.6,13.26-8.08,18.52c-3.46,5.29-7.74,9.84-12.71,13.51c-4.91,3.66-10.47,6.64-16.5,8.85
				c-5.97,2.15-12.51,3.75-19.46,4.76C94.03,600.39,86.71,600.88,79.12,600.88z M11.36,595.4h67.76c7.33,0,14.4-0.47,21-1.4
				c6.57-0.95,12.76-2.46,18.36-4.49c5.52-2.02,10.61-4.74,15.11-8.1c4.46-3.29,8.29-7.37,11.4-12.12
				c3.16-4.79,5.64-10.48,7.36-16.93c1.74-6.53,2.62-14.14,2.62-22.63c0-12.6-1.94-23.2-5.75-31.54c-3.79-8.3-9.08-15.03-15.72-20
				c-6.74-5.02-14.81-8.63-23.98-10.72c-9.38-2.1-19.67-3.17-30.59-3.17H11.36V595.4z M78.93,589.45H18.32V470.13h60.61
				c6.57,0,12.87,0.37,18.73,1.12c5.92,0.75,11.51,2.07,16.59,3.91c5.1,1.82,9.77,4.27,13.88,7.27c4.15,3.01,7.73,6.81,10.64,11.3
				c2.85,4.46,5.07,9.72,6.59,15.67c1.51,5.89,2.28,12.73,2.28,20.35c0,11.47-1.71,21.15-5.09,28.78l0,0
				c-3.42,7.74-8.27,14-14.44,18.61c-6.07,4.54-13.43,7.78-21.87,9.63C97.99,588.55,88.8,589.45,78.93,589.45z M23.8,583.97h55.13
				c9.48,0,18.28-0.86,26.15-2.56c7.67-1.69,14.32-4.6,19.75-8.66c5.4-4.04,9.68-9.58,12.71-16.44l0,0
				c3.07-6.92,4.62-15.86,4.62-26.56c0-7.16-0.71-13.55-2.11-18.99c-1.38-5.38-3.36-10.11-5.9-14.07c-2.52-3.91-5.64-7.22-9.25-9.84
				c-3.69-2.7-7.9-4.89-12.51-6.55c-4.72-1.7-9.91-2.92-15.43-3.62c-5.63-0.71-11.7-1.07-18.04-1.07H23.8V583.97z"/>
		</g>
		<g>
			<rect x="193.89" y="461.58" class="st0" width="12.43" height="136.56"/>
			<path class="st0" d="M209.07,600.88h-17.91V458.84h17.91V600.88z M196.63,595.4h6.95V464.32h-6.95V595.4z"/>
		</g>
		<g>
			<path class="st0" d="M344.84,458.62c-1.56-0.16-3.27-0.29-5.14-0.38c-1.84-0.1-3.92-0.14-6.24-0.14
				c-6.76,0-13.31,0.78-19.62,2.33c-6.32,1.56-12.37,3.7-18.15,6.43c-5.78,2.76-11.26,6.07-16.43,9.91
				c-5.21,3.84-10.03,8.05-14.48,12.62v-27.82h-12.43v136.56h12.43V503.3c3.84-4.64,8.15-9.02,12.91-13.15
				c4.76-4.16,9.96-7.8,15.58-10.91c5.59-3.11,11.65-5.57,18.2-7.38c6.51-1.84,13.48-2.76,20.91-2.76c5.37,0,9.76,0.35,13.19,1.05
				c3.4,0.7,6.07,1.35,8,1.95v-12.24c-1.46-0.25-2.89-0.49-4.29-0.71C347.87,458.96,346.4,458.78,344.84,458.62z"/>
			<path class="st0" d="M267.51,600.88H249.6V458.84h17.91v24.07c3.2-2.95,6.59-5.74,10.11-8.34c5.28-3.92,10.96-7.34,16.88-10.17
				c5.94-2.81,12.22-5.03,18.68-6.62c6.5-1.6,13.32-2.42,20.28-2.42c2.37,0,4.5,0.05,6.38,0.15c1.92,0.1,3.68,0.23,5.28,0.39
				c1.59,0.16,3.1,0.34,4.52,0.53c1.47,0.23,2.91,0.47,4.39,0.73l2.27,0.4v18.27l-3.55-1.11c-1.83-0.57-4.43-1.2-7.74-1.88
				c-3.22-0.66-7.48-0.99-12.64-0.99c-7.15,0-13.93,0.9-20.16,2.66c-6.32,1.75-12.24,4.15-17.61,7.14c-5.43,3-10.51,6.56-15.1,10.58
				c-4.38,3.79-8.4,7.85-11.97,12.08V600.88z M255.08,595.4h6.95v-93.08l0.63-0.76c3.92-4.73,8.37-9.27,13.22-13.47
				c4.88-4.26,10.28-8.05,16.04-11.23c5.75-3.2,12.07-5.77,18.79-7.63c6.7-1.9,13.99-2.86,21.64-2.86c5.53,0,10.16,0.37,13.74,1.1
				c1.78,0.36,3.34,0.71,4.72,1.05v-6.34c-0.67-0.11-1.32-0.22-1.98-0.32c-1.31-0.18-2.75-0.35-4.27-0.5
				c-1.51-0.16-3.18-0.28-5-0.37c-1.81-0.1-3.84-0.14-6.1-0.14c-6.51,0-12.9,0.76-18.97,2.25c-6.1,1.5-12.04,3.6-17.63,6.25
				c-5.59,2.67-10.97,5.91-15.97,9.63c-5.07,3.74-9.83,7.89-14.15,12.33l-4.7,4.84v-31.83h-6.95V595.4z"/>
		</g>
	</g>
	<g>
		<path class="st0" d="M42.29,679.65H10.95v-61.74h31.34c3.31,0,6.48,0.19,9.43,0.56c3.03,0.39,5.88,1.06,8.5,2
			c2.64,0.94,5.07,2.21,7.21,3.78c2.19,1.58,4.08,3.59,5.6,5.95l0.01,0.01c1.48,2.32,2.64,5.06,3.43,8.14
			c0.78,3.02,1.17,6.52,1.17,10.4c0,5.87-0.89,10.85-2.64,14.79c-1.78,4.04-4.33,7.32-7.57,9.74c-3.16,2.36-6.97,4.04-11.34,5
			C51.89,679.2,47.25,679.65,42.29,679.65z M16.42,674.18h25.86c4.58,0,8.83-0.41,12.63-1.23c3.59-0.79,6.69-2.15,9.22-4.04
			c2.48-1.85,4.44-4.4,5.84-7.57c1.44-3.24,2.17-7.47,2.17-12.57c0-3.43-0.33-6.47-1-9.04c-0.64-2.51-1.56-4.72-2.73-6.55
			c-1.16-1.79-2.58-3.3-4.22-4.49c-1.73-1.26-3.68-2.29-5.84-3.05c-2.25-0.81-4.71-1.39-7.33-1.73c-2.72-0.35-5.66-0.52-8.74-0.52
			H16.42V674.18z"/>
		<path class="st0" d="M482.71,648.46h-71.96l0.37-3.07c0.46-3.76,1.55-7.4,3.26-10.8c1.73-3.45,4.14-6.5,7.17-9.09
			c2.98-2.59,6.67-4.67,10.95-6.18c4.22-1.51,9.19-2.27,14.75-2.27c5.89,0,11.05,0.76,15.34,2.27c4.33,1.51,7.99,3.62,10.85,6.26
			c2.89,2.65,5.09,5.75,6.54,9.23c1.43,3.39,2.28,7,2.54,10.73L482.71,648.46z M417.11,642.98h59.58c-0.36-2.09-0.95-4.12-1.77-6.06
			c-1.14-2.75-2.89-5.2-5.19-7.31l-0.01-0.01c-2.32-2.13-5.33-3.86-8.96-5.12c-3.71-1.31-8.26-1.97-13.53-1.97
			c-4.93,0-9.28,0.66-12.92,1.96c-3.64,1.28-6.73,3.02-9.2,5.16c-2.48,2.13-4.44,4.61-5.84,7.4
			C418.32,638.94,417.6,640.93,417.11,642.98z"/>
		<path class="st0" d="M621.31,685.3h-11.55v-61.91h-30.72v-11.06h72.99v11.06h-30.72V685.3z M615.23,679.82h0.59v-61.91l30.72-0.1
			l-62.04,0.1h30.72V679.82z"/>
		<path class="st0" d="M541.96,686.62c-4.15,0-8.19-0.34-12.01-1.01c-3.88-0.69-7.53-1.75-10.87-3.14
			c-3.36-1.38-6.48-3.14-9.23-5.21c-2.8-2.1-5.24-4.59-7.24-7.4c-2.01-2.82-3.59-6.03-4.67-9.54c-1.07-3.49-1.61-7.34-1.61-11.47
			c0-4.12,0.54-7.97,1.6-11.44c1.09-3.52,2.66-6.73,4.68-9.55c2-2.8,4.44-5.29,7.24-7.4c2.76-2.07,5.86-3.84,9.23-5.24
			c3.34-1.37,6.98-2.42,10.83-3.11c3.81-0.68,7.87-1.03,12.04-1.03c3.33,0,6.47,0.17,9.32,0.51c2.85,0.35,5.58,0.83,8.15,1.44
			c2.58,0.6,5.09,1.32,7.47,2.15c2.33,0.82,4.74,1.74,7.16,2.74l1.7,0.7v14.17l-4.2-2.65c-1.77-1.11-3.7-2.19-5.75-3.2
			c-2-0.99-4.19-1.86-6.52-2.6c-2.32-0.74-4.86-1.33-7.55-1.77c-2.66-0.43-5.56-0.65-8.6-0.65c-6.2,0-11.61,0.67-16.08,2
			c-4.38,1.29-8.01,3.12-10.8,5.44c-2.73,2.27-4.78,5.06-6.09,8.27c-1.35,3.3-2.03,7.06-2.03,11.21s0.68,7.91,2.03,11.2
			c1.31,3.2,3.36,5.97,6.09,8.23c2.79,2.32,6.42,4.15,10.8,5.44c4.47,1.32,9.88,1.98,16.08,1.98c3.04,0,5.95-0.22,8.67-0.67
			c2.72-0.43,5.3-1.03,7.68-1.77c2.36-0.74,4.56-1.6,6.53-2.57c2.01-0.97,3.86-2,5.5-3.08l4.24-2.78v14.23l-1.7,0.7
			c-2.37,0.98-4.78,1.9-7.14,2.73c-2.39,0.85-4.9,1.58-7.48,2.2c-2.57,0.62-5.32,1.1-8.17,1.42
			C548.41,686.45,545.28,686.62,541.96,686.62z M530.83,680.21c0.03,0,0.05,0.01,0.08,0.01c2.31,0.4,4.72,0.68,7.19,0.82
			C535.53,680.88,533.1,680.6,530.83,680.21z M570.27,674.68c-0.61,0.32-1.23,0.63-1.86,0.94c-2.2,1.08-4.66,2.05-7.29,2.88
			c-1.79,0.56-3.67,1.04-5.63,1.44c0.91-0.17,1.79-0.36,2.66-0.57c2.4-0.57,4.73-1.26,6.93-2.04c1.72-0.61,3.46-1.26,5.19-1.95
			V674.68z M513.27,624.75c-0.04,0.03-0.09,0.06-0.13,0.09c-2.36,1.77-4.4,3.86-6.08,6.21c-1.67,2.34-2.99,5.02-3.9,7.97
			c-0.9,2.95-1.36,6.26-1.36,9.83c0,3.59,0.46,6.9,1.36,9.86c0.91,2.95,2.22,5.63,3.89,7.97c1.68,2.35,3.73,4.44,6.08,6.21
			c0.71,0.53,1.45,1.05,2.21,1.53c-0.92-0.6-1.78-1.24-2.6-1.92c-3.43-2.84-6-6.33-7.66-10.37c-1.62-3.95-2.44-8.42-2.44-13.28
			c0-4.86,0.82-9.33,2.44-13.28c1.65-4.05,4.23-7.56,7.66-10.41C512.93,625.02,513.1,624.88,513.27,624.75z M559.73,618.75
			c0.41,0.12,0.81,0.24,1.21,0.37c2.59,0.82,5.03,1.8,7.28,2.91c0.7,0.34,1.38,0.69,2.05,1.05v-0.77c-1.76-0.7-3.5-1.35-5.19-1.95
			C563.37,619.77,561.57,619.23,559.73,618.75z"/>
		<path class="st0" d="M310.29,685.3h-11.62V638c0-3.35-0.44-6.09-1.3-8.15c-0.82-1.98-1.94-3.48-3.41-4.59
			c-1.51-1.16-3.4-1.98-5.64-2.44c-5.37-1.14-12.58-1.1-18.99,0.54c-3.53,0.89-6.91,2.02-10.04,3.39c-3.14,1.37-6.06,2.9-8.68,4.54
			c-2.16,1.37-4.07,2.71-5.68,3.99v50.03h-11.62v-72.97h11.62v9.69c1.11-0.67,2.27-1.35,3.47-2.04c2.88-1.64,5.99-3.16,9.27-4.52
			c3.33-1.38,6.91-2.53,10.66-3.41c3.83-0.89,7.91-1.34,12.14-1.34c4.82,0,9.11,0.6,12.76,1.78c3.74,1.21,6.91,2.97,9.43,5.22l0,0
			c2.56,2.29,4.5,5.11,5.77,8.37c1.23,3.16,1.86,6.73,1.86,10.6V685.3z M304.15,679.82h0.67v-43.14c0-3.18-0.5-6.08-1.48-8.61
			c-0.97-2.49-2.38-4.54-4.31-6.28l0,0c-1.94-1.74-4.46-3.12-7.47-4.1c-3.1-1.01-6.82-1.51-11.07-1.51c-3.81,0-7.47,0.4-10.89,1.2
			c-3.45,0.81-6.75,1.86-9.81,3.13c-1.68,0.7-3.31,1.43-4.88,2.21c0.72-0.34,1.46-0.68,2.21-1.01c3.41-1.48,7.07-2.72,10.89-3.68
			c7.2-1.84,15.29-1.9,21.45-0.59c3.04,0.63,5.68,1.79,7.84,3.45c2.22,1.67,3.96,3.98,5.14,6.84c1.14,2.72,1.72,6.17,1.72,10.26
			V679.82z M238.8,679.82h0.67V632.7l0.97-0.82c1.48-1.24,3.2-2.53,5.15-3.85c-0.66,0.4-1.3,0.8-1.92,1.2l-4.2,2.65v-14.07h-0.67
			V679.82z"/>
		<path class="st0" d="M825.15,686.62c-6.56,0-12.75-0.74-18.39-2.21c-5.74-1.51-10.8-3.84-15.05-6.93
			c-4.3-3.15-7.72-7.15-10.17-11.88c-2.45-4.77-3.69-10.4-3.69-16.75c0-4.22,0.58-8.15,1.71-11.67c1.13-3.52,2.75-6.74,4.83-9.57
			c2.08-2.82,4.62-5.32,7.56-7.41c2.86-2.06,6.1-3.8,9.61-5.13c3.43-1.31,7.18-2.32,11.14-2.99c3.93-0.66,8.09-1,12.34-1
			c3.23,0,6.27,0.17,9.03,0.49c2.78,0.32,5.47,0.79,8.01,1.4c2.54,0.58,5.05,1.3,7.44,2.12c2.34,0.8,4.76,1.73,7.2,2.74l1.69,0.7
			v14.25l-4.2-2.65c-1.77-1.11-3.7-2.19-5.74-3.2c-1.98-0.98-4.15-1.86-6.45-2.6c-2.29-0.74-4.8-1.33-7.47-1.77
			c-2.63-0.43-5.52-0.65-8.58-0.65c-6.26,0-11.78,0.66-16.39,1.97c-4.51,1.26-8.29,3.08-11.25,5.4c-2.86,2.26-5.04,5.05-6.49,8.28
			c-1.45,3.29-2.19,7.09-2.19,11.27c0,3.89,0.72,7.52,2.15,10.77c1.4,3.21,3.57,6.01,6.44,8.34c2.93,2.39,6.69,4.29,11.18,5.65
			c4.57,1.39,10.04,2.09,16.27,2.09c2.47,0,4.94-0.1,7.36-0.3c2.45-0.18,4.78-0.43,6.95-0.73c2.14-0.3,4.13-0.64,5.91-1.01
			c0.9-0.18,1.73-0.37,2.49-0.56v-15.65h-27.47v-11.22H860v34.34l-1.83,0.64c-2.47,0.87-5.02,1.65-7.55,2.32
			c-2.52,0.68-5.19,1.25-7.9,1.7c-2.69,0.45-5.53,0.8-8.44,1.04C831.38,686.51,828.31,686.62,825.15,686.62z M801.88,620.86
			c-2.43,1.06-4.7,2.33-6.74,3.81c-2.48,1.76-4.61,3.85-6.34,6.2c-1.73,2.35-3.08,5.04-4.03,7.99c-0.96,2.98-1.44,6.34-1.44,10
			c0,5.46,1.04,10.26,3.09,14.24c2.05,3.97,4.92,7.33,8.53,9.97c3.69,2.68,8.13,4.72,13.21,6.06c3.13,0.81,6.45,1.38,9.93,1.71
			c-3.73-0.37-7.16-1.03-10.25-1.97c-5.17-1.58-9.55-3.81-13.03-6.64c-3.55-2.88-6.25-6.37-8.01-10.39
			c-1.73-3.95-2.61-8.31-2.61-12.96c0-4.95,0.89-9.48,2.66-13.49c1.81-4.06,4.54-7.55,8.1-10.36
			C796.97,623.41,799.29,622.02,801.88,620.86z M826.41,651.98h27.47v24.9c0.21-0.07,0.43-0.14,0.64-0.21v-24.96h-28.11V651.98z
			 M841.04,618.36c0.91,0.24,1.79,0.49,2.65,0.77c2.56,0.83,4.99,1.81,7.21,2.91c0.68,0.34,1.36,0.69,2.02,1.04v-0.87
			c-1.76-0.7-3.5-1.35-5.19-1.93C845.59,619.54,843.34,618.89,841.04,618.36z"/>
		<path class="st0" d="M671.42,685.3H659.8v-72.97h11.62V685.3z M665.28,679.82h0.67v-62.01h-0.67V679.82z"/>
		<path class="st0" d="M765.66,685.3h-11.62V638c0-3.36-0.44-6.1-1.29-8.15c-0.82-1.98-1.94-3.48-3.41-4.59
			c-1.51-1.16-3.4-1.98-5.64-2.44c-5.37-1.14-12.57-1.1-18.99,0.54c-3.53,0.89-6.91,2.02-10.04,3.39c-3.14,1.37-6.06,2.9-8.68,4.54
			c-2.16,1.37-4.07,2.71-5.68,3.99v50.03h-11.62v-72.97h11.62v9.69c1.11-0.67,2.27-1.35,3.47-2.04c2.88-1.64,5.99-3.16,9.27-4.52
			c3.33-1.38,6.91-2.53,10.66-3.41c3.83-0.89,7.91-1.34,12.14-1.34c4.82,0,9.11,0.6,12.76,1.78c3.74,1.21,6.91,2.97,9.43,5.22l0,0
			c2.56,2.29,4.5,5.11,5.77,8.37c1.23,3.16,1.86,6.73,1.86,10.6V685.3z M759.51,679.82h0.67v-43.14c0-3.18-0.5-6.08-1.48-8.61
			c-0.97-2.49-2.38-4.54-4.31-6.28l0,0c-1.94-1.74-4.46-3.12-7.47-4.1c-3.1-1.01-6.82-1.51-11.07-1.51c-3.81,0-7.47,0.4-10.89,1.2
			c-3.45,0.81-6.75,1.86-9.81,3.13c-1.68,0.7-3.31,1.44-4.89,2.21c0.73-0.35,1.47-0.68,2.22-1.01c3.41-1.48,7.07-2.72,10.89-3.68
			c7.2-1.84,15.29-1.9,21.45-0.59c3.04,0.63,5.68,1.79,7.84,3.45c2.22,1.67,3.96,3.98,5.14,6.84c1.15,2.76,1.71,6.11,1.71,10.26
			V679.82z M694.16,679.82h0.67V632.7l0.97-0.82c1.47-1.24,3.2-2.53,5.15-3.85c-0.66,0.4-1.3,0.81-1.93,1.2l-4.2,2.65v-14.07h-0.67
			V679.82z"/>
		<path class="st0" d="M450.77,686.53c-6.85,0-13.14-0.85-18.7-2.52c-5.66-1.69-10.57-4.18-14.57-7.38
			c-4.04-3.24-7.21-7.23-9.43-11.86c-2.19-4.61-3.3-9.83-3.3-15.52c0-5.52,1.06-10.66,3.16-15.28c2.09-4.62,5.07-8.65,8.85-11.99
			c3.78-3.3,8.32-5.89,13.51-7.69c5.14-1.81,10.88-2.72,17.05-2.72c6.4,0,12.2,0.88,17.25,2.62c5.12,1.75,9.52,4.3,13.07,7.59
			l0.01,0.01c3.55,3.31,6.29,7.38,8.14,12.09c1.81,4.64,2.73,9.91,2.73,15.67v4.24h-71.58c0.49,2.66,1.31,5.12,2.46,7.35
			c1.53,2.99,3.74,5.57,6.59,7.67c2.89,2.13,6.54,3.81,10.86,4.97c4.43,1.2,9.68,1.81,15.62,1.81c2.51,0,5.11-0.17,7.71-0.52
			c2.59-0.35,5.12-0.82,7.5-1.4c2.39-0.59,4.59-1.25,6.55-1.98c1.86-0.7,3.39-1.41,4.54-2.13l4.19-2.63v14.1l-1.93,0.59
			c-2.8,0.86-5.41,1.61-7.77,2.22c-2.43,0.62-4.85,1.12-7.21,1.51c-2.39,0.39-4.82,0.68-7.24,0.88
			C456.4,686.44,453.69,686.53,450.77,686.53z M431.29,619.76c-4.2,1.55-7.85,3.68-10.89,6.34c-3.18,2.81-5.7,6.22-7.48,10.13
			c-1.77,3.91-2.67,8.28-2.67,13.02c0,4.87,0.93,9.3,2.77,13.16c1.85,3.88,4.51,7.22,7.9,9.94c3.45,2.76,7.74,4.92,12.72,6.41
			c4.71,1.41,10.03,2.18,15.84,2.28c-5.22-0.18-9.93-0.83-14.05-1.95c-4.97-1.34-9.24-3.31-12.68-5.85
			c-3.53-2.61-6.29-5.83-8.2-9.57c-1.89-3.67-3.05-7.83-3.44-12.36l-0.36-2.84l0.37-3.07c0.46-3.76,1.55-7.4,3.26-10.8
			c1.73-3.45,4.14-6.5,7.17-9.09C424.24,623.15,427.52,621.22,431.29,619.76z M477.51,676.32c-0.43,0.18-0.88,0.35-1.34,0.52
			c-2.16,0.81-4.57,1.53-7.16,2.17c-2.57,0.63-5.29,1.14-8.09,1.51c-0.63,0.08-1.26,0.16-1.89,0.22c2.05-0.18,4.12-0.44,6.15-0.77
			c2.2-0.36,4.47-0.84,6.74-1.41c1.75-0.45,3.61-0.97,5.58-1.56V676.32z M482.7,648.33h0.35c-0.12-4.59-0.9-8.77-2.34-12.43
			c-1.55-3.93-3.83-7.33-6.78-10.08c-2.98-2.77-6.72-4.93-11.12-6.43c-0.31-0.1-0.62-0.21-0.93-0.3c0.23,0.07,0.47,0.16,0.7,0.24
			c4.33,1.51,7.99,3.62,10.86,6.27c2.88,2.64,5.08,5.75,6.53,9.23c1.43,3.39,2.28,7,2.54,10.73L482.7,648.33z M417.11,642.98h59.58
			c-0.36-2.09-0.95-4.12-1.77-6.06c-1.14-2.75-2.89-5.2-5.19-7.31c-2.32-2.14-5.34-3.86-8.96-5.13c-3.71-1.31-8.26-1.97-13.53-1.97
			c-4.93,0-9.28,0.66-12.92,1.96c-3.64,1.28-6.73,3.02-9.2,5.16c-2.48,2.13-4.44,4.61-5.84,7.4
			C418.32,638.94,417.6,640.93,417.11,642.98z"/>
		<path class="st0" d="M154.75,686.62c-5.99,0-11.51-0.44-16.42-1.31c-4.88-0.87-9.6-2.08-14.03-3.59l-1.86-0.63V666.8l4.14,2.46
			c4.17,2.48,8.63,4.2,13.25,5.1c4.77,0.95,9.86,1.43,15.13,1.43c3.72,0,7.2-0.22,10.34-0.66c3.01-0.44,5.65-1.11,7.83-2.01
			c1.95-0.82,3.47-1.87,4.52-3.13c0.9-1.09,1.34-2.46,1.34-4.16c0-1.26-0.34-2.32-1.04-3.23c-0.85-1.14-2.02-2.15-3.52-3.02
			c-1.65-0.97-3.62-1.84-5.88-2.59c-2.38-0.8-4.92-1.55-7.55-2.23c-2.7-0.7-5.49-1.37-8.35-2.03c-2.92-0.68-5.81-1.43-8.58-2.23
			c-2.78-0.8-5.48-1.73-8.01-2.76c-2.62-1.06-4.96-2.33-6.96-3.78c-2.11-1.55-3.81-3.35-5.06-5.37c-1.34-2.18-2.01-4.7-2.01-7.49
			c0-2.66,0.53-5.1,1.57-7.23c1.01-2.07,2.42-3.89,4.18-5.41c1.7-1.45,3.69-2.67,5.93-3.64c2.13-0.94,4.47-1.69,6.92-2.23
			c2.36-0.52,4.85-0.91,7.41-1.16c5.34-0.51,10.63-0.46,15.25,0c2.4,0.24,4.75,0.56,6.97,0.94c2.25,0.39,4.45,0.83,6.54,1.33
			c2.11,0.49,4.25,1.02,6.41,1.6l2.04,0.54v13.5l-3.91-1.86c-1.26-0.6-2.7-1.24-4.32-1.93c-1.55-0.65-3.35-1.25-5.35-1.78
			c-2.02-0.52-4.35-0.97-6.93-1.33c-2.56-0.36-5.44-0.54-8.56-0.54c-3.82,0-7.25,0.22-10.2,0.65c-2.82,0.42-5.22,1.07-7.13,1.93
			c-1.71,0.77-3,1.72-3.85,2.82c-0.76,0.99-1.13,2.17-1.13,3.61c0,1.07,0.3,1.94,0.96,2.74c0.82,0.97,2.01,1.9,3.52,2.72
			c1.66,0.89,3.66,1.72,5.93,2.46c2.39,0.78,4.95,1.52,7.6,2.21c2.72,0.7,5.53,1.41,8.43,2.13c2.95,0.74,5.84,1.53,8.59,2.37
			c2.81,0.86,5.52,1.83,8.04,2.9c2.63,1.12,4.97,2.45,6.96,3.96c2.09,1.57,3.78,3.42,5.03,5.48c1.32,2.2,2,4.74,2,7.56
			c0,2.94-0.58,5.57-1.73,7.83c-1.1,2.19-2.63,4.13-4.54,5.73c-1.83,1.54-3.99,2.83-6.42,3.82c-2.32,0.95-4.82,1.72-7.43,2.28
			c-2.58,0.54-5.27,0.93-8.03,1.16C160.06,686.52,157.37,686.62,154.75,686.62z M127.93,677.14c3.63,1.14,7.44,2.07,11.37,2.77
			c1.39,0.25,2.84,0.46,4.34,0.63c-1.65-0.22-3.27-0.49-4.86-0.81c-3.73-0.73-7.37-1.93-10.85-3.57V677.14z M135.64,619.99
			c-1.63,0.73-3.06,1.62-4.27,2.65c-1.21,1.04-2.13,2.24-2.82,3.66c-0.68,1.38-1.02,3.01-1.02,4.83c0,1.79,0.39,3.3,1.2,4.62
			c0.87,1.41,2.09,2.7,3.61,3.81c1.63,1.18,3.58,2.23,5.79,3.13c2.36,0.95,4.87,1.82,7.48,2.57c2.67,0.77,5.46,1.5,8.29,2.15
			c2.9,0.66,5.74,1.35,8.5,2.06c2.75,0.71,5.41,1.5,7.91,2.34c2.61,0.87,4.94,1.9,6.92,3.06c2.13,1.25,3.85,2.74,5.12,4.45
			c1.41,1.85,2.14,4.05,2.14,6.53c0,2.98-0.87,5.56-2.6,7.65c-1.48,1.77-3.46,3.24-5.9,4.37c0.06-0.02,0.12-0.05,0.18-0.07
			c1.9-0.78,3.57-1.77,4.97-2.95c1.36-1.14,2.4-2.45,3.17-4c0.76-1.5,1.15-3.3,1.15-5.37c0-1.83-0.4-3.38-1.21-4.73
			c-0.88-1.46-2.1-2.78-3.63-3.93l-0.01-0.01c-1.64-1.24-3.59-2.35-5.8-3.29c-2.34-0.99-4.87-1.9-7.49-2.7
			c-2.66-0.81-5.45-1.58-8.31-2.29c-2.91-0.72-5.74-1.44-8.48-2.15c-2.76-0.71-5.43-1.49-7.93-2.31c-2.57-0.84-4.86-1.8-6.82-2.85
			c-2.14-1.16-3.86-2.52-5.14-4.05c-1.48-1.81-2.22-3.9-2.22-6.23c0-2.65,0.76-4.98,2.26-6.94
			C131.89,622.41,133.55,621.06,135.64,619.99z M173.22,618.53c2.2,0.59,4.2,1.26,5.95,2c0.21,0.09,0.42,0.18,0.63,0.27v-0.71
			c-1.42-0.36-2.82-0.7-4.22-1.03C174.8,618.87,174.02,618.7,173.22,618.53z"/>
		<path class="st0" d="M216.06,685.3h-11.62v-72.97h11.62V685.3z M209.91,679.82h0.67v-62.01h-0.67V679.82z"/>
		<path class="st0" d="M107.99,685.3H96.36v-72.97h11.62V685.3z M101.84,679.82h0.67v-62.01h-0.67V679.82z"/>
		<path class="st0" d="M42.38,685.3H4.8v-72.97h37.48c5.7,0,11.09,0.56,16.02,1.67c5.1,1.16,9.6,3.18,13.4,6l0.01,0.01
			c3.84,2.87,6.88,6.73,9.04,11.46c2.13,4.65,3.22,10.47,3.22,17.29c0,4.54-0.48,8.66-1.43,12.24c-0.97,3.62-2.38,6.83-4.18,9.56
			c-1.8,2.75-4.03,5.11-6.62,7.03c-2.53,1.88-5.39,3.42-8.5,4.56c-3.03,1.1-6.36,1.91-9.89,2.42
			C49.88,685.06,46.2,685.3,42.38,685.3z M10.28,679.82h32.1c3.56,0,6.99-0.23,10.19-0.68c3.16-0.46,6.12-1.18,8.8-2.15
			c2.6-0.95,5-2.23,7.11-3.81c2.08-1.53,3.86-3.43,5.3-5.64c1.48-2.25,2.65-4.92,3.46-7.97c0.83-3.11,1.25-6.76,1.25-10.82
			c0-6.02-0.91-11.07-2.72-15.01c-1.78-3.89-4.25-7.04-7.34-9.35c-3.18-2.36-6.99-4.07-11.33-5.06c-4.53-1.02-9.52-1.53-14.81-1.53
			H10.28V679.82z M42.29,679.65H10.95v-61.74h31.34c3.31,0,6.48,0.19,9.43,0.56c3.03,0.39,5.88,1.06,8.5,2
			c2.64,0.94,5.07,2.21,7.21,3.78c2.19,1.58,4.08,3.59,5.6,5.95c1.49,2.33,2.65,5.07,3.44,8.15c0.78,3.02,1.17,6.52,1.17,10.4
			c0,5.87-0.89,10.84-2.63,14.78l0,0c-1.78,4.05-4.33,7.33-7.57,9.75c-3.16,2.36-6.97,4.04-11.34,5
			C51.89,679.2,47.25,679.65,42.29,679.65z M16.42,674.18h25.86c4.58,0,8.83-0.41,12.63-1.23c3.59-0.79,6.69-2.15,9.22-4.04
			c2.48-1.85,4.44-4.4,5.84-7.57l0-0.01c1.44-3.24,2.17-7.46,2.17-12.56c0-3.43-0.33-6.47-1-9.04c-0.65-2.52-1.57-4.72-2.74-6.55
			c-1.15-1.78-2.57-3.29-4.22-4.48c-1.73-1.26-3.68-2.29-5.84-3.05c-2.25-0.81-4.71-1.39-7.33-1.73c-2.72-0.35-5.66-0.52-8.74-0.52
			H16.42V674.18z"/>
		<path class="st0" d="M338.81,685.3h-11.62v-48.13c0-3.85,0.7-7.37,2.08-10.46c1.44-3.2,3.73-5.91,6.81-8.07
			c2.96-2.08,6.75-3.68,11.27-4.75l0.01,0c4.39-1.03,9.74-1.56,15.88-1.56h34.24v11.22h-33.01c-4.75,0-8.87,0.32-12.25,0.96
			c-3.24,0.6-5.9,1.52-7.9,2.75c-1.88,1.15-3.23,2.57-4.12,4.32c-0.91,1.79-1.37,4.02-1.37,6.62v4.77h57.68v11.22h-57.68V685.3z
			 M332.67,679.82h0.67v-31.1h57.68v-0.27h-57.68v-10.25c0-3.48,0.66-6.54,1.97-9.11c1.34-2.64,3.41-4.83,6.14-6.51
			c2.58-1.58,5.87-2.75,9.76-3.47c3.7-0.7,8.16-1.06,13.26-1.06H392v-0.27h-28.76c-5.72,0-10.64,0.47-14.62,1.41
			c-3.85,0.92-7.01,2.23-9.39,3.91c-2.3,1.61-3.92,3.52-4.96,5.83c-1.06,2.37-1.6,5.14-1.6,8.22V679.82z"/>
	</g>
</g>
</svg>
